# Made using Asset Forge (www.assetforge.io) version 1.3 

mtllib ceilingLight.mtl 

v -0.4330129 0.6249999 0.5
v -0.4330129 0.6250001 -0.5
v -0.4829631 0.6611771 0.5
v -0.4829631 0.6611772 -0.5
v -0.5000002 0.7 0.5
v -0.5000002 0.7 -0.5
v -0.3535535 0.5939341 -0.5
v -0.3535535 0.593934 0.5
v -0.2500001 0.5700962 0.5
v -0.2500001 0.5700963 -0.5
v -0.1294096 0.5551111 0.5
v -0.1294096 0.5551112 -0.5
v -4.470348E-08 0.55 0.5
v -4.470348E-08 0.5500001 -0.5
v 0.1294095 0.5551111 0.5
v 0.1294095 0.5551112 -0.5
v 0.25 0.5700962 0.5
v 0.25 0.5700963 -0.5
v 0.3535534 0.593934 0.5
v 0.3535534 0.5939341 -0.5
v 0.4330128 0.6250001 -0.5
v 0.4330128 0.6249999 0.5
v 0.482963 0.6611772 -0.5
v 0.482963 0.6611771 0.5
v 0.5000001 0.7 -0.5
v 0.5000001 0.7 0.5
vn -0.843272 -0.1612462 1.490116E-08
vn -0.887114 -0.1384653 1.490116E-08
vn -0.9536502 -0.09027546 7.450581E-09
vn -0.9763445 -0.06486662 7.450581E-09
vn -0.9914451 -0.03915786 3.72529E-09
vn -0.7071069 -0.2121321 2.980232E-08
vn -0.7071069 -0.212132 2.980232E-08
vn -0.5374876 -0.2529815 2.980232E-08
vn -0.461551 -0.2661341 2.980232E-08
vn -0.3009183 -0.286095 2.980232E-08
vn -0.2162221 -0.2929032 2.980232E-08
vn -0.04384199 -0.2997115 2.980232E-08
vn 0.04384199 -0.2997115 2.980232E-08
vn 0.2162221 -0.2929032 2.980232E-08
vn 0.3009183 -0.286095 2.980232E-08
vn 0.461551 -0.2661341 2.980232E-08
vn 0.5374876 -0.2529815 2.980232E-08
vn 0.7071069 -0.2121321 2.980232E-08
vn 0.7071069 -0.212132 2.980232E-08
vn 0.843272 -0.1612462 1.490116E-08
vn 0.887114 -0.1384653 1.490116E-08
vn 0.9536502 -0.09027546 7.450581E-09
vn 0.9763445 -0.06486662 7.450581E-09
vn 0.9914451 -0.03915786 3.72529E-09
vn 0 5.960464E-08 -1
vn 0 -5.960464E-08 1
vn 0 0.3 -2.980232E-08
vt 0.4330129 -0.5
vt 0.4330129 0.5
vt 0.4829631 -0.5
vt 0.4829631 0.5
vt 0.5 0.6611771
vt -0.5 0.6611772
vt 0.5 0.6999999
vt -0.5 0.7
vt 0.3535535 0.5
vt 0.3535535 -0.5
vt 0.2500001 -0.5
vt 0.2500001 0.5
vt 0.1294096 -0.5
vt 0.1294096 0.5
vt 4.470348E-08 -0.5
vt 4.470348E-08 0.5
vt -0.1294095 -0.5
vt -0.1294095 0.5
vt -0.25 -0.5
vt -0.25 0.5
vt -0.3535534 -0.5
vt -0.3535534 0.5
vt -0.4330128 0.5
vt -0.4330128 -0.5
vt -0.482963 0.5
vt -0.482963 -0.5
vt 0.5 0.6611772
vt -0.5 0.6611771
vt 0.5 0.7
vt -0.5 0.6999999
vt 0.5000002 0.7
vt 0.4829631 0.6611772
vt -0.5000001 0.7
vt 0.4330129 0.6250001
vt 0.3535535 0.5939341
vt 0.2500001 0.5700963
vt 0.1294096 0.5551112
vt 4.470348E-08 0.5500001
vt -0.1294095 0.5551112
vt -0.25 0.5700963
vt -0.3535534 0.5939341
vt -0.4330128 0.6250001
vt -0.482963 0.6611772
vt -0.5000002 0.6999999
vt 0.5000001 0.6999999
vt -0.4829631 0.6611771
vt -0.4330129 0.6249999
vt -0.3535535 0.5939339
vt -0.2500001 0.5700961
vt -0.1294096 0.5551111
vt -4.470348E-08 0.55
vt 0.1294095 0.5551111
vt 0.25 0.5700961
vt 0.3535534 0.5939339
vt 0.4330128 0.6249999
vt 0.482963 0.6611771
vt 0.5000002 -0.5
vt -0.5000001 -0.5
vt 0.5000002 0.5
vt -0.5000001 0.5

usemtl _defaultMat (Instance) (Instance)
usemap _defaultMat (Instance) (Instance)
f 3/3/3 2/2/2 1/1/1
f 2/2/2 3/3/3 4/4/4
f 5/7/5 4/6/4 3/5/3
f 4/6/4 5/7/5 6/8/5
f 7/9/6 1/1/1 2/2/2
f 1/1/1 7/9/6 8/10/7
f 7/9/6 9/11/8 8/10/7
f 9/11/8 7/9/6 10/12/9
f 10/12/9 11/13/10 9/11/8
f 11/13/10 10/12/9 12/14/11
f 12/14/11 13/15/12 11/13/10
f 13/15/12 12/14/11 14/16/13
f 14/16/13 15/17/14 13/15/12
f 15/17/14 14/16/13 16/18/15
f 16/18/15 17/19/16 15/17/14
f 17/19/16 16/18/15 18/20/17
f 18/20/17 19/21/18 17/19/16
f 19/21/18 18/20/17 20/22/19
f 21/23/20 19/21/18 20/22/19
f 19/21/18 21/23/20 22/24/21
f 23/25/22 22/24/21 21/23/20
f 22/24/21 23/25/22 24/26/23
f 25/29/24 24/28/23 23/27/22
f 24/28/23 25/29/24 26/30/24
f 25/33/25 4/32/25 6/31/25
f 4/32/25 25/33/25 2/34/25
f 2/34/25 25/33/25 7/35/25
f 7/35/25 25/33/25 10/36/25
f 10/36/25 25/33/25 12/37/25
f 12/37/25 25/33/25 14/38/25
f 14/38/25 25/33/25 16/39/25
f 16/39/25 25/33/25 18/40/25
f 18/40/25 25/33/25 20/41/25
f 20/41/25 25/33/25 21/42/25
f 21/42/25 25/33/25 23/43/25
f 3/46/26 26/45/26 5/44/26
f 26/45/26 3/46/26 1/47/26
f 26/45/26 1/47/26 8/48/26
f 26/45/26 8/48/26 9/49/26
f 26/45/26 9/49/26 11/50/26
f 26/45/26 11/50/26 13/51/26
f 26/45/26 13/51/26 15/52/26
f 26/45/26 15/52/26 17/53/26
f 26/45/26 17/53/26 19/54/26
f 26/45/26 19/54/26 22/55/26
f 26/45/26 22/55/26 24/56/26
f 5/59/27 25/58/27 6/57/27
f 25/58/27 5/59/27 26/60/27

usemtl lightStone (Instance) (Instance)
usemap lightStone (Instance) (Instance)
f 3/3/3 2/2/2 1/1/1
f 2/2/2 3/3/3 4/4/4
f 5/7/5 4/6/4 3/5/3
f 4/6/4 5/7/5 6/8/5
f 7/9/6 1/1/1 2/2/2
f 1/1/1 7/9/6 8/10/7
f 7/9/6 9/11/8 8/10/7
f 9/11/8 7/9/6 10/12/9
f 10/12/9 11/13/10 9/11/8
f 11/13/10 10/12/9 12/14/11
f 12/14/11 13/15/12 11/13/10
f 13/15/12 12/14/11 14/16/13
f 14/16/13 15/17/14 13/15/12
f 15/17/14 14/16/13 16/18/15
f 16/18/15 17/19/16 15/17/14
f 17/19/16 16/18/15 18/20/17
f 18/20/17 19/21/18 17/19/16
f 19/21/18 18/20/17 20/22/19
f 21/23/20 19/21/18 20/22/19
f 19/21/18 21/23/20 22/24/21
f 23/25/22 22/24/21 21/23/20
f 22/24/21 23/25/22 24/26/23
f 25/29/24 24/28/23 23/27/22
f 24/28/23 25/29/24 26/30/24
f 25/33/25 4/32/25 6/31/25
f 4/32/25 25/33/25 2/34/25
f 2/34/25 25/33/25 7/35/25
f 7/35/25 25/33/25 10/36/25
f 10/36/25 25/33/25 12/37/25
f 12/37/25 25/33/25 14/38/25
f 14/38/25 25/33/25 16/39/25
f 16/39/25 25/33/25 18/40/25
f 18/40/25 25/33/25 20/41/25
f 20/41/25 25/33/25 21/42/25
f 21/42/25 25/33/25 23/43/25
f 3/46/26 26/45/26 5/44/26
f 26/45/26 3/46/26 1/47/26
f 26/45/26 1/47/26 8/48/26
f 26/45/26 8/48/26 9/49/26
f 26/45/26 9/49/26 11/50/26
f 26/45/26 11/50/26 13/51/26
f 26/45/26 13/51/26 15/52/26
f 26/45/26 15/52/26 17/53/26
f 26/45/26 17/53/26 19/54/26
f 26/45/26 19/54/26 22/55/26
f 26/45/26 22/55/26 24/56/26
f 5/59/27 25/58/27 6/57/27
f 25/58/27 5/59/27 26/60/27
