# Made using Asset Forge (www.assetforge.io) version 1.3 

mtllib palette.mtl 

v 1.5 0.13 -0.4823232
v 1.5 0.1 -0.4823232
v 1.5 0.13 -0.3166769
v 1.5 0.1 -0.3166769
v 0.5 0.1 -0.4823232
v 0.5 0.13 -0.4823232
v 0.5 0.1 -0.3166769
v 0.5 0.13 -0.3166769
v 1.5 0.1 0.08282318
v 1.5 0.1 -0.08282318
v 0.5 0.1 0.08282318
v 0.5 0.1 -0.08282318
v 1.5 0.13 -0.08282318
v 1.5 0.13 0.08282318
v 0.5 0.13 0.08282318
v 0.5 0.13 -0.08282318
v 1.5 0.13 -0.2825732
v 1.5 0.1 -0.2825732
v 1.5 0.13 -0.1169268
v 1.5 0.1 -0.1169268
v 0.5 0.13 -0.2825732
v 0.5 0.13 -0.1169268
v 0.5 0.1 -0.2825732
v 0.5 0.1 -0.1169268
v 0.5 0.1 0.3166769
v 0.5 0.13 0.3166769
v 0.5 0.1 0.4823232
v 0.5 0.13 0.4823232
v 1.5 0.1 0.4823232
v 1.5 0.13 0.4823232
v 1.5 0.1 0.3166769
v 1.5 0.13 0.3166769
v 1.5 0.1 0.2825732
v 0.5 0.1 0.2825732
v 1.5 0.13 0.2825732
v 0.5 0.13 0.2825732
v 1.5 0.13 0.1169268
v 1.5 0.1 0.1169268
v 0.5 0.13 0.1169268
v 0.5 0.1 0.1169268
vn 1 0 0
vn 0 0 -1
vn -1 0 0
vn 0 1 0
vn 0 0 1
vn 0 -1 0
vt 0.4823232 0.13
vt 0.4823232 0.1
vt 0.3166769 0.13
vt 0.3166769 0.1
vt -0.5 0.1
vt -1.5 0.1
vt -0.5 0.13
vt -1.5 0.13
vt -0.4823232 0.1
vt -0.4823232 0.13
vt -0.3166769 0.1
vt -0.3166769 0.13
vt -1.5 -0.4823232
vt -1.5 -0.3166769
vt -0.5 -0.4823232
vt -0.5 -0.3166769
vt 1.5 0.1
vt 0.5 0.1
vt 1.5 0.13
vt 0.5 0.13
vt -1.5 0.3166769
vt -1.5 0.4823232
vt -0.5 0.3166769
vt -0.5 0.4823232
vt -1.5 -0.08282318
vt -1.5 0.08282318
vt -0.5 -0.08282318
vt -0.5 0.08282318
vt 0.08282318 0.13
vt 0.08282318 0.1
vt -0.08282318 0.13
vt -0.08282318 0.1
vt 0.2825732 0.13
vt 0.2825732 0.1
vt 0.1169268 0.13
vt 0.1169268 0.1
vt -1.5 -0.2825732
vt -1.5 -0.1169268
vt -0.5 -0.2825732
vt -0.5 -0.1169268
vt -0.2825732 0.1
vt -0.2825732 0.13
vt -0.1169268 0.1
vt -0.1169268 0.13
vt -1.5 0.1169268
vt -1.5 0.2825732
vt -0.5 0.1169268
vt -0.5 0.2825732

usemtl wood (Instance) (Instance)
usemap wood (Instance) (Instance)
f 3/3/1 2/2/1 1/1/1
f 2/2/1 3/3/1 4/4/1
f 6/7/2 2/6/2 5/5/2
f 2/6/2 6/7/2 1/8/2
f 7/11/3 6/10/3 5/9/3
f 6/10/3 7/11/3 8/12/3
f 6/15/4 3/14/4 1/13/4
f 3/14/4 6/15/4 8/16/4
f 3/19/5 7/18/5 4/17/5
f 7/18/5 3/19/5 8/20/5
f 7/23/6 2/22/6 4/21/6
f 2/22/6 7/23/6 5/24/6
f 11/27/6 10/26/6 9/25/6
f 10/26/6 11/27/6 12/28/6
f 14/31/1 10/30/1 13/29/1
f 10/30/1 14/31/1 9/32/1
f 14/19/5 11/18/5 9/17/5
f 11/18/5 14/19/5 15/20/5
f 16/7/2 10/6/2 12/5/2
f 10/6/2 16/7/2 13/8/2
f 16/27/4 14/26/4 13/25/4
f 14/26/4 16/27/4 15/28/4
f 11/30/3 16/31/3 12/32/3
f 16/31/3 11/30/3 15/29/3
f 19/35/1 18/34/1 17/33/1
f 18/34/1 19/35/1 20/36/1
f 21/39/4 19/38/4 17/37/4
f 19/38/4 21/39/4 22/40/4
f 24/43/3 21/42/3 23/41/3
f 21/42/3 24/43/3 22/44/3
f 24/47/6 18/46/6 20/45/6
f 18/46/6 24/47/6 23/48/6
f 19/19/5 24/18/5 20/17/5
f 24/18/5 19/19/5 22/20/5
f 21/7/2 18/6/2 23/5/2
f 18/6/2 21/7/2 17/8/2
f 27/2/3 26/3/3 25/4/3
f 26/3/3 27/2/3 28/1/3
f 30/19/5 27/18/5 29/17/5
f 27/18/5 30/19/5 28/20/5
f 27/15/6 31/14/6 29/13/6
f 31/14/6 27/15/6 25/16/6
f 26/7/2 31/6/2 25/5/2
f 31/6/2 26/7/2 32/8/2
f 30/10/1 31/11/1 32/12/1
f 31/11/1 30/10/1 29/9/1
f 26/23/4 30/22/4 32/21/4
f 30/22/4 26/23/4 28/24/4
f 35/19/5 34/18/5 33/17/5
f 34/18/5 35/19/5 36/20/5
f 35/42/1 38/43/1 37/44/1
f 38/43/1 35/42/1 33/41/1
f 39/47/4 35/46/4 37/45/4
f 35/46/4 39/47/4 36/48/4
f 39/7/2 38/6/2 40/5/2
f 38/6/2 39/7/2 37/8/2
f 34/34/3 39/35/3 40/36/3
f 39/35/3 34/34/3 36/33/3
f 34/39/6 38/38/6 33/37/6
f 38/38/6 34/39/6 40/40/6
v 1.482323 0.099 0.5000001
v 1.482323 0 0.5000001
v 1.316677 0.099 0.5000001
v 1.316677 0 0.5000001
v 1.482323 0 -0.5
v 1.482323 0.099 -0.5
v 1.316677 0 -0.5
v 1.316677 0.099 -0.5
v 0.9171767 0 0.5
v 1.082823 0 0.5000001
v 0.9171768 0 -0.5000001
v 1.082823 0 -0.5
v 1.082823 0.099 0.5000001
v 0.9171767 0.099 0.5
v 0.9171768 0.099 -0.5000001
v 1.082823 0.099 -0.5
v 1.282573 0.099 0.5000001
v 1.282573 0 0.5000001
v 1.116927 0.099 0.5000001
v 1.116927 0 0.5000001
v 1.282573 0.099 -0.5
v 1.116927 0.099 -0.5000001
v 1.282573 0 -0.5
v 1.116927 0 -0.5000001
v 0.6833231 2.23659E-18 -0.5000001
v 0.6833231 0.099 -0.5000001
v 0.5176768 2.23659E-18 -0.5000001
v 0.5176768 0.099 -0.5000001
v 0.5176767 2.23659E-18 0.5
v 0.5176767 0.099 0.5
v 0.683323 2.23659E-18 0.5
v 0.683323 0.099 0.5
v 0.7174267 2.23659E-18 0.5
v 0.7174268 2.23659E-18 -0.5000001
v 0.7174267 0.099 0.5
v 0.7174268 0.099 -0.5000001
v 0.8830731 0.099 0.5000001
v 0.8830731 2.23659E-18 0.5000001
v 0.8830732 0.099 -0.5000001
v 0.8830732 2.23659E-18 -0.5000001
vn -1.192093E-07 0 1
vn 1 0 1.192093E-07
vn 1.192093E-07 0 -1
vn 0 3.3 0
vn -1 0 -1.192093E-07
vn 0 -3.3 0
vt 1.482323 0.099
vt 1.482323 0
vt 1.316677 0.099
vt 1.316677 0
vt 0.5 0
vt -0.5000001 0
vt 0.5 0.099
vt -0.5000001 0.099
vt -1.482323 0
vt -1.482323 0.099
vt -1.316677 0
vt -1.316677 0.099
vt -1.482323 0.5000001
vt -1.316677 0.5000001
vt -1.482323 -0.5
vt -1.316677 -0.5
vt 0.5000001 0
vt -0.5 0
vt 0.5000001 0.099
vt -0.5 0.099
vt -1.316677 -0.5000001
vt -1.482323 -0.5000001
vt -1.316677 0.5
vt -1.482323 0.5
vt -0.9171767 -0.5000001
vt -1.082823 -0.5000001
vt -0.9171768 0.5000001
vt -1.082823 0.5000001
vt 1.082823 0.099
vt 1.082823 0
vt 0.9171767 0.099
vt 0.9171767 0
vt 0.5000001 0
vt -0.5000001 0
vt 0.5000001 0.099
vt -0.5000001 0.099
vt -1.082823 0.5000001
vt -0.9171767 0.5000001
vt -1.082823 -0.5000001
vt -0.9171768 -0.5000001
vt -1.082823 0
vt -1.082823 0.099
vt -0.9171768 0
vt -0.9171768 0.099
vt 1.282573 0.099
vt 1.282573 0
vt 1.116927 0.099
vt 1.116927 0
vt -1.282573 0.5000001
vt -1.116927 0.5000001
vt -1.282573 -0.5
vt -1.116927 -0.5000001
vt -1.282573 0
vt -1.282573 0.099
vt -1.116927 0
vt -1.116927 0.099
vt -1.116927 -0.5000001
vt -1.282573 -0.5000001
vt -1.116927 0.5000001
vt -1.282573 0.5
vt -0.6833231 2.23659E-18
vt -0.6833231 0.099
vt -0.5176768 2.23659E-18
vt -0.5176768 0.099
vt 0.5 2.23659E-18
vt -0.5000001 2.23659E-18
vt -0.5176767 -0.5
vt -0.683323 -0.5
vt -0.5176768 0.5000001
vt -0.6833231 0.5000001
vt 0.5000001 2.23659E-18
vt -0.5 2.23659E-18
vt 0.683323 0.099
vt 0.683323 2.23659E-18
vt 0.5176767 0.099
vt 0.5176767 2.23659E-18
vt -0.683323 0.5
vt -0.5176767 0.5
vt -0.6833231 -0.5000001
vt -0.5176768 -0.5000001
vt 0.8830731 0.099
vt 0.8830731 2.23659E-18
vt 0.7174267 0.099
vt 0.7174267 2.23659E-18
vt -0.8830731 0.5000001
vt -0.7174267 0.5
vt -0.8830732 -0.5000001
vt -0.7174268 -0.5000001
vt 0.5000001 2.23659E-18
vt -0.5000001 2.23659E-18
vt -0.8830732 2.23659E-18
vt -0.8830732 0.099
vt -0.7174268 2.23659E-18
vt -0.7174268 0.099
vt -0.7174267 -0.5
vt -0.8830731 -0.5000001
vt -0.7174268 0.5000001
vt -0.8830732 0.5000001

usemtl wood (Instance) (Instance)
usemap wood (Instance) (Instance)
f 43/51/7 42/50/7 41/49/7
f 42/50/7 43/51/7 44/52/7
f 46/55/8 42/54/8 45/53/8
f 42/54/8 46/55/8 41/56/8
f 47/59/9 46/58/9 45/57/9
f 46/58/9 47/59/9 48/60/9
f 46/63/10 43/62/10 41/61/10
f 43/62/10 46/63/10 48/64/10
f 43/67/11 47/66/11 44/65/11
f 47/66/11 43/67/11 48/68/11
f 47/71/12 42/70/12 44/69/12
f 42/70/12 47/71/12 45/72/12
f 51/75/12 50/74/12 49/73/12
f 50/74/12 51/75/12 52/76/12
f 54/79/7 50/78/7 53/77/7
f 50/78/7 54/79/7 49/80/7
f 54/83/11 51/82/11 49/81/11
f 51/82/11 54/83/11 55/84/11
f 56/83/8 50/82/8 52/81/8
f 50/82/8 56/83/8 53/84/8
f 56/87/10 54/86/10 53/85/10
f 54/86/10 56/87/10 55/88/10
f 51/91/9 56/90/9 52/89/9
f 56/90/9 51/91/9 55/92/9
f 59/95/7 58/94/7 57/93/7
f 58/94/7 59/95/7 60/96/7
f 61/99/10 59/98/10 57/97/10
f 59/98/10 61/99/10 62/100/10
f 64/103/9 61/102/9 63/101/9
f 61/102/9 64/103/9 62/104/9
f 64/107/12 58/106/12 60/105/12
f 58/106/12 64/107/12 63/108/12
f 59/83/11 64/82/11 60/81/11
f 64/82/11 59/83/11 62/84/11
f 61/55/8 58/54/8 63/53/8
f 58/54/8 61/55/8 57/56/8
f 67/111/9 66/110/9 65/109/9
f 66/110/9 67/111/9 68/112/9
f 70/55/11 67/114/11 69/113/11
f 67/114/11 70/55/11 68/56/11
f 67/117/12 71/116/12 69/115/12
f 71/116/12 67/117/12 65/118/12
f 66/67/8 71/120/8 65/119/8
f 71/120/8 66/67/8 72/68/8
f 70/123/7 71/122/7 72/121/7
f 71/122/7 70/123/7 69/124/7
f 66/127/10 70/126/10 72/125/10
f 70/126/10 66/127/10 68/128/10
f 75/55/11 74/114/11 73/113/11
f 74/114/11 75/55/11 76/56/11
f 75/131/7 78/130/7 77/129/7
f 78/130/7 75/131/7 73/132/7
f 79/135/10 75/134/10 77/133/10
f 75/134/10 79/135/10 76/136/10
f 79/83/8 78/138/8 80/137/8
f 78/138/8 79/83/8 77/84/8
f 74/141/9 79/140/9 80/139/9
f 79/140/9 74/141/9 76/142/9
f 74/145/12 78/144/12 73/143/12
f 78/144/12 74/145/12 80/146/12
