# Made using Asset Forge (www.assetforge.io) version 1.3 

mtllib floortiled40x40.model.mtl 

v 10 0 10
v 10 0 -10
v -10 0 10
v -10 0 -10
v -10 0.1 -10
v -10 0.1 10
v 10 0.1 -10
v 10 0.1 10
vn 0 -0.1 0
vn -20 0 0
vn 0 0 -20
vn 0 0 20
vn 20 0 0
vn 0 0.1 0
vt -10 -10
vt -10 10
vt 10 -10
vt 10 10
vt -10 0
vt -10 0.1
vt 10 0
vt 10 0.1

usemtl customMaterial1 (Instance)
usemap customMaterial1 (Instance)
f 3/3/1 2/2/1 1/1/1
f 2/2/1 3/3/1 4/4/1
f 3/7/2 5/6/2 4/5/2
f 5/6/2 3/7/2 6/8/2
f 5/8/3 2/5/3 4/7/3
f 2/5/3 5/8/3 7/6/3
f 8/8/4 3/5/4 1/7/4
f 3/5/4 8/8/4 6/6/4
f 8/6/5 2/7/5 7/8/5
f 2/7/5 8/6/5 1/5/5
f 5/3/6 8/2/6 7/1/6
f 8/2/6 5/3/6 6/4/6
v -30 0 10
v -30 0 -10
v -30 0.1 -10
v -30 0.1 10
vt 30 -10
vt 30 10
vt 30 0
vt 30 0.1
vt -30 0
vt -30 0.1

usemtl customMaterial1 (Instance)
usemap customMaterial1 (Instance)
f 9/9/1 4/4/1 3/3/1
f 4/4/1 9/9/1 10/10/1
f 9/7/2 11/6/2 10/5/2
f 11/6/2 9/7/2 12/8/2
f 11/12/3 4/7/3 10/11/3
f 4/7/3 11/12/3 5/8/3
f 6/6/4 9/13/4 3/5/4
f 9/13/4 6/6/4 12/14/4
f 6/6/5 4/7/5 5/8/5
f 4/7/5 6/6/5 3/5/5
f 11/9/6 6/4/6 5/3/6
f 6/4/6 11/9/6 12/10/6
v 10 0 30
v -10 0 30
v -10 0.1 30
v 10 0.1 30
vt -10 -30
vt 10 -30
vt -10 30
vt 10 30

usemtl customMaterial1 (Instance)
usemap customMaterial1 (Instance)
f 14/16/1 1/1/1 13/15/1
f 1/1/1 14/16/1 3/3/1
f 14/11/2 6/8/2 3/7/2
f 6/8/2 14/11/2 15/12/2
f 6/8/3 1/5/3 3/7/3
f 1/5/3 6/8/3 8/6/3
f 16/8/4 14/5/4 13/7/4
f 14/5/4 16/8/4 15/6/4
f 16/14/5 1/5/5 8/6/5
f 1/5/5 16/14/5 13/13/5
f 6/4/6 16/17/6 8/2/6
f 16/17/6 6/4/6 15/18/6
v -30 0 30
v -30 0.1 30
vt 30 -30
vt 30 30

usemtl customMaterial1 (Instance)
usemap customMaterial1 (Instance)
f 17/19/1 3/3/1 14/16/1
f 3/3/1 17/19/1 9/9/1
f 17/11/2 12/8/2 9/7/2
f 12/8/2 17/11/2 18/12/2
f 12/12/3 3/7/3 9/11/3
f 3/7/3 12/12/3 6/8/3
f 15/6/4 17/13/4 14/5/4
f 17/13/4 15/6/4 18/14/4
f 15/14/5 3/5/5 6/6/5
f 3/5/5 15/14/5 14/13/5
f 12/10/6 15/18/6 6/4/6
f 15/18/6 12/10/6 18/20/6
