# Made using Asset Forge (www.assetforge.io) version 1.3 

mtllib wall20x1x4.mtl 

v 10 0 0.5
v 10 0 -0.5
v -10 0 0.5
v -10 0 -0.5
v -10 4 -0.5
v -10 4 0.5
v 10 4 -0.5
v 10 4 0.5
vn 0 -4 0
vn -20 0 0
vn 0 0 -1
vn 0 0 1
vn 20 0 0
vn 0 4 0
vt -10 -0.5
vt -10 0.5
vt 10 -0.5
vt 10 0.5
vt -0.5 0
vt -0.5 4
vt 0.5 0
vt 0.5 4
vt 10 0
vt -10 0
vt 10 4
vt -10 4

usemtl customMaterial1 (Instance)
usemap customMaterial1 (Instance)
f 3/3/1 2/2/1 1/1/1
f 2/2/1 3/3/1 4/4/1
f 3/7/2 5/6/2 4/5/2
f 5/6/2 3/7/2 6/8/2
f 5/11/3 2/10/3 4/9/3
f 2/10/3 5/11/3 7/12/3
f 8/11/4 3/10/4 1/9/4
f 3/10/4 8/11/4 6/12/4
f 8/6/5 2/7/5 7/8/5
f 2/7/5 8/6/5 1/5/5
f 5/3/6 8/2/6 7/1/6
f 8/2/6 5/3/6 6/4/6
