# Made using Asset Forge (www.assetforge.io) version 1.3 

mtllib doorway.mtl 

v 0.5 0 0.5
v 0.5 0 -0.5
v -1.5 0 0.5
v -1.5 0 -0.5
v -1.5 7 -0.5
v -1.5 7 0.5
v 0.5 7 -0.5
v 0.5 7 0.5
vn 0 -7 0
vn -2 0 0
vn 0 0 -1
vn 0 0 1
vn 2 0 0
vn 0 7 0
vt -0.5 -0.5
vt -0.5 0.5
vt 1.5 -0.5
vt 1.5 0.5
vt -0.5 0
vt -0.5 7
vt 0.5 0
vt 0.5 7
vt 1.5 0
vt 1.5 7
vt -1.5 0
vt -1.5 7

usemtl _defaultMat (Instance)
usemap _defaultMat (Instance)
f 3/3/1 2/2/1 1/1/1
f 2/2/1 3/3/1 4/4/1
f 3/7/2 5/6/2 4/5/2
f 5/6/2 3/7/2 6/8/2
f 5/10/3 2/5/3 4/9/3
f 2/5/3 5/10/3 7/6/3
f 8/8/4 3/11/4 1/7/4
f 3/11/4 8/8/4 6/12/4
f 8/6/5 2/7/5 7/8/5
f 2/7/5 8/6/5 1/5/5
f 5/3/6 8/2/6 7/1/6
f 8/2/6 5/3/6 6/4/6
v -8.500001 0 -0.4937496
v -8.500001 5.4 -0.4937496
v -8.937501 -1.461871E-15 4.768372E-07
v -8.937501 5.4 4.768372E-07
v -1.0625 -3.411032E-15 1.430511E-06
v -1.0625 5.4 1.430511E-06
v -1.5 0 -0.4937487
v -1.5 5.4 -0.4937487
v -8.500001 5.4 0.4937506
v -8.500001 0 0.4937506
v -1.5 5.4 0.4937515
v -3.724205 -1.272216E-16 0.888751
v -3.373797 -1.272216E-16 0.8887515
v -3.724205 -4.328007E-31 -0.8887491
v -3.373797 0 0.493751
v -3.373047 -2.164003E-31 -0.4937489
v -1.5 0 0.4937515
v -3.373047 -2.164003E-31 -0.8887491
v -6.275795 -1.272216E-16 0.888751
v -6.275795 -4.328007E-31 -0.8887496
v -6.626204 -1.272216E-16 0.8887506
v -6.626204 0 0.493751
v -6.626954 -2.164003E-31 -0.4937494
v -6.626954 -2.164003E-31 -0.8887494
v -6.626954 4.345263 -0.4937494
v -3.373047 4.345263 -0.4937489
v -3.373797 4.344684 0.493751
v -6.626204 4.344684 0.493751
v -6.275795 4.074369 0.888751
v -6.275795 4.074369 -0.8887496
v -3.724205 4.074369 0.888751
v -3.724205 4.074369 -0.8887491
v -3.373797 4.344684 0.8887515
v -6.626204 4.344684 0.8887506
v -6.626954 4.345263 -0.8887494
v -3.373047 4.345263 -0.8887491
vn -4.949748 0 -5.586145
vn 4.949749 0 -5.586144
vn -4.949749 0 5.586144
vn 0 5.4 0
vn 0 -5.4 0
vn 4.949748 0 5.586145
vn 9.536743E-07 0 -7.900002
vn -9.536743E-07 0 7.900002
vn 7.000001 0 9.536743E-07
vn -7.000001 0 -9.536743E-07
vt -0.4937496 0
vt -0.4937496 5.4
vt 4.842877E-07 -1.461871E-15
vt 4.842877E-07 5.4
vt -1.423061E-06 -3.411032E-15
vt -1.423061E-06 5.4
vt 0.4937488 0
vt 0.4937488 5.4
vt 0.4937507 5.4
vt 0.4937507 0
vt 1.5 0.4937515
vt 8.500001 0.4937507
vt 1.0625 1.423061E-06
vt 8.937501 4.842877E-07
vt 1.5 -0.4937488
vt 8.500001 -0.4937496
vt 3.724205 -0.8887515
vt 3.373797 -0.8887515
vt 3.724205 0.8887492
vt 3.373797 -0.4937513
vt 3.373047 0.493749
vt 1.5 -0.4937515
vt 1.0625 -1.423061E-06
vt 3.373047 0.8887492
vt 1.5 0.4937488
vt -0.4937515 5.4
vt -0.4937515 0
vt 6.275795 -0.8887511
vt 6.275795 0.8887496
vt 6.626204 -0.8887511
vt 6.626204 -0.4937509
vt 6.626954 0.4937494
vt 8.500001 -0.4937507
vt 8.937501 -4.842877E-07
vt 8.500001 0.4937496
vt 6.626954 0.8887496
vt 6.626954 -2.164003E-31
vt 6.626954 4.345263
vt 8.500001 0
vt 8.500001 5.4
vt 3.373047 4.345263
vt 1.5 5.4
vt 3.373047 -2.164003E-31
vt 1.5 0
vt -3.373797 4.344684
vt -3.373797 0
vt -1.5 5.4
vt -8.500001 5.4
vt -6.626204 4.344684
vt -6.626204 0
vt -8.500001 0
vt -0.8887511 -1.272216E-16
vt -0.8887511 4.074369
vt 0.8887496 -4.328007E-31
vt 0.8887496 4.074369
vt 0.8887515 -1.272216E-16
vt -0.8887492 -4.328007E-31
vt 0.8887515 4.074369
vt -0.8887492 4.074369
vt -3.373797 -1.272216E-16
vt -3.724205 4.074369
vt -6.275795 4.074369
vt -6.275795 -1.272216E-16
vt -6.626204 -1.272216E-16
vt -3.724205 -1.272216E-16
vt -0.8887515 -1.272216E-16
vt -0.8887515 4.344684
vt -0.4937513 0
vt -0.4937513 4.344684
vt 3.373797 0.8887515
vt 6.626204 0.8887511
vt 3.373797 0.4937513
vt 6.626204 0.4937509
vt 0.8887511 -1.272216E-16
vt 0.4937509 0
vt 0.8887511 4.344684
vt 0.4937509 4.344684
vt 6.275795 -4.328007E-31
vt 6.275795 4.074369
vt 3.724205 4.074369
vt 3.724205 -4.328007E-31
vt -0.4937494 -2.164003E-31
vt -0.8887496 -2.164003E-31
vt -0.4937494 4.345263
vt -0.8887496 4.345263
vt 3.373047 -0.493749
vt 6.626954 -0.4937494
vt 3.373047 -0.8887492
vt 6.626954 -0.8887496
vt 0.8887492 -2.164003E-31
vt 0.493749 -2.164003E-31
vt 0.8887492 4.345263
vt 0.493749 4.345263

usemtl _defaultMat (Instance) (Instance)
usemap _defaultMat (Instance) (Instance)
f 11/15/7 10/14/7 9/13/7
f 10/14/7 11/15/7 12/16/7
f 15/19/8 14/18/8 13/17/8
f 14/18/8 15/19/8 16/20/8
f 12/16/9 18/22/9 17/21/9
f 18/22/9 12/16/9 11/15/9
f 14/25/10 17/24/10 19/23/10
f 17/24/10 14/25/10 12/26/10
f 12/26/10 14/25/10 16/27/10
f 12/26/10 16/27/10 10/28/10
f 22/31/11 21/30/11 20/29/11
f 21/30/11 22/31/11 23/32/11
f 23/32/11 22/31/11 24/33/11
f 23/32/11 24/33/11 25/34/11
f 25/34/11 24/33/11 13/35/11
f 24/33/11 22/31/11 26/36/11
f 15/37/11 13/35/11 24/33/11
f 19/38/12 13/17/12 14/18/12
f 13/17/12 19/38/12 25/39/12
f 29/42/11 28/41/11 27/40/11
f 28/41/11 29/42/11 30/43/11
f 28/41/11 30/43/11 31/44/11
f 31/44/11 30/43/11 18/45/11
f 31/44/11 18/45/11 11/46/11
f 31/44/11 11/46/11 9/47/11
f 28/41/11 31/44/11 32/48/11
f 9/51/13 33/50/13 31/49/13
f 10/52/13 33/50/13 9/51/13
f 10/52/13 34/53/13 33/50/13
f 16/54/13 34/53/13 10/52/13
f 16/54/13 24/55/13 34/53/13
f 24/55/13 16/54/13 15/56/13
f 23/58/14 25/11/14 35/57/14
f 19/59/14 35/57/14 25/11/14
f 35/57/14 19/59/14 17/60/14
f 35/57/14 17/60/14 36/61/14
f 36/61/14 17/60/14 30/62/14
f 30/62/14 17/60/14 18/63/14

usemtl wood (Instance)
usemap wood (Instance)
f 28/66/15 37/65/15 27/64/15
f 37/65/15 28/66/15 38/67/15
f 38/41/11 39/29/11 37/40/11
f 39/29/11 38/41/11 40/31/11
f 39/70/16 22/69/16 20/68/16
f 22/69/16 39/70/16 40/71/16
f 41/57/14 39/73/14 21/72/14
f 39/73/14 41/57/14 42/61/14
f 39/73/14 42/61/14 37/74/14
f 37/74/14 42/61/14 27/75/14
f 27/75/14 42/61/14 29/76/14
f 20/77/14 21/72/14 39/73/14
f 23/80/15 41/79/15 21/78/15
f 41/79/15 23/80/15 35/81/15
f 35/84/10 42/83/10 41/82/10
f 42/83/10 35/84/10 36/85/10
f 42/88/16 30/87/16 29/86/16
f 30/87/16 42/88/16 36/89/16
f 32/49/13 38/91/13 28/90/13
f 43/50/13 38/91/13 32/49/13
f 43/50/13 40/92/13 38/91/13
f 44/53/13 40/92/13 43/50/13
f 44/53/13 22/93/13 40/92/13
f 22/93/13 44/53/13 26/55/13
f 33/96/16 32/95/16 31/94/16
f 32/95/16 33/96/16 43/97/16
f 44/100/10 33/99/10 34/98/10
f 33/99/10 44/100/10 43/101/10
f 44/104/15 24/103/15 26/102/15
f 24/103/15 44/104/15 34/105/15
v -8.5 0 0.5
v -8.5 0 -0.5
v -10.5 0 0.5
v -10.5 0 -0.5
v -10.5 7 -0.5
v -10.5 7 0.5
v -8.5 7 -0.5
v -8.5 7 0.5
vt 8.5 -0.5
vt 8.5 0.5
vt 10.5 -0.5
vt 10.5 0.5
vt 10.5 0
vt 8.5 0
vt 10.5 7
vt 8.5 7
vt -8.5 0
vt -10.5 0
vt -8.5 7
vt -10.5 7

usemtl _defaultMat (Instance) (Instance)
usemap _defaultMat (Instance) (Instance)
f 47/108/1 46/107/1 45/106/1
f 46/107/1 47/108/1 48/109/1
f 47/7/2 49/6/2 48/5/2
f 49/6/2 47/7/2 50/8/2
f 49/112/3 46/111/3 48/110/3
f 46/111/3 49/112/3 51/113/3
f 52/116/4 47/115/4 45/114/4
f 47/115/4 52/116/4 50/117/4
f 52/6/5 46/7/5 51/8/5
f 46/7/5 52/6/5 45/5/5
f 49/108/6 52/107/6 51/106/6
f 52/107/6 49/108/6 50/109/6
v -1.5 5.4 -0.5000001
v -1.5 5.4 0.5000001
v -1.5 7 -0.5000001
v -1.5 7 0.5000001
v -8.500001 7 0.5000001
v -8.500001 7 -0.5000001
v -8.500001 5.399999 0.5000001
v -8.500001 5.399999 -0.5000001
vn 7.000001 9.536743E-07 0
vn 2.384186E-07 1.6 0
vn 0 0 1
vn 0 0 -1
vn -2.384186E-07 -1.6 0
vn -7.000001 -9.536743E-07 0
vt 0.5000001 5.4
vt -0.5000001 5.4
vt 0.5000001 7
vt -0.5000001 7
vt 1.5 0.5000001
vt 8.500001 0.5000001
vt 1.5 -0.5000001
vt 8.500001 -0.5000001
vt -1.5 7
vt -1.5 5.4
vt -8.500001 7
vt -8.500001 5.4
vt 1.5 5.4
vt 1.5 7
vt 8.500001 5.4
vt 8.500001 7
vt 1.5 -0.5000001
vt 1.5 0.5000001
vt 0.5000001 5.4
vt -0.5000001 5.4
vt 0.5000001 7
vt -0.5000001 7

usemtl _defaultMat (Instance) (Instance)
usemap _defaultMat (Instance) (Instance)
f 55/120/17 54/119/17 53/118/17
f 54/119/17 55/120/17 56/121/17
f 55/124/18 57/123/18 56/122/18
f 57/123/18 55/124/18 58/125/18
f 57/128/19 54/127/19 56/126/19
f 54/127/19 57/128/19 59/129/19
f 60/132/20 55/131/20 53/130/20
f 55/131/20 60/132/20 58/133/20
f 60/123/21 54/134/21 59/125/21
f 54/134/21 60/123/21 53/135/21
f 57/138/22 60/137/22 59/136/22
f 60/137/22 57/138/22 58/139/22
