# Made using Asset Forge (www.assetforge.io) version 1.3 

mtllib doorway.mtl 

v 0.4375 0 0.5
v 0.4375 1 0.5
v 0.5 -2.707168E-16 0.5625
v 0.5 1 0.5625
v 0.5 -6.316725E-16 -0.5625
v 0.5 1 -0.5625
v 0.4375 0 -0.5
v 0.4375 1 -0.5
v 0.5625 1 0.5
v 0.5625 0 0.5
v 0.5625 1 -0.5
v 0.5625 7.049916E-18 0.45
v 0.4175 1.379393E-17 0.4
v 0.5825 1.409983E-17 0.4
v 0.5825 7.049916E-18 0.45
v 0.4375 7.049916E-18 0.45
v 0.4175 6.744012E-18 0.45
v 0.5625 0 -0.5
v 0.5825 1.409983E-17 -0.4
v 0.5825 7.049916E-18 -0.45
v 0.4175 1.379393E-17 -0.4
v 0.5625 7.049916E-18 -0.45
v 0.4375 7.049916E-18 -0.45
v 0.4175 6.744012E-18 -0.45
v 0.5625 0.9499999 -0.45
v 0.5625 0.9499999 0.45
v 0.5625 0.05 0.45
v 0.5625 0.05 -0.45
v 0.4375 0.05 0.45
v 0.4375 0.9499999 0.45
v 0.4375 0.9499999 -0.45
v 0.4375 0.05 -0.45
v 0.4175 0.9499999 -0.45
v 0.4175 0.9499999 0.45
v 0.4175 0.9 -0.4
v 0.5825 0.9 -0.4
v 0.4175 0.9 0.4
v 0.5825 0.9 0.4
v 0.5825 0.9499999 0.45
v 0.5825 0.9499999 -0.45
vn -0.7071068 0 0.7071068
vn -0.7071068 0 -0.7071068
vn 0.7071068 0 0.7071068
vn 0 1 0
vn 0 -1 0
vn 0.7071068 0 -0.7071068
vn 1 0 0
vn -1 0 0
vn 0 0 -1
vn 0 0 1
vt 0.4375 0
vt 0.4375 1
vt 0.5 -2.707168E-16
vt 0.5 1
vt -0.5 -6.316725E-16
vt -0.5 1
vt -0.4375 0
vt -0.4375 1
vt 0.5625 1
vt 0.5625 0
vt -0.5625 -0.5
vt -0.5625 0.5
vt -0.5 -0.5625
vt -0.5 0.5625
vt -0.4375 -0.5
vt -0.4375 0.5
vt -0.5625 -0.45
vt -0.4175 -0.4
vt -0.5825 -0.4
vt -0.5825 -0.45
vt -0.4375 -0.45
vt -0.4175 -0.45
vt -0.5625 1
vt -0.5625 0
vt -0.5825 0.4
vt -0.5825 0.45
vt -0.4175 0.4
vt -0.5625 0.45
vt -0.4375 0.45
vt -0.4175 0.45
vt 0.5 0
vt 0.45 0.9499999
vt -0.45 0.9499999
vt -0.45 0.05
vt -0.45 7.049916E-18
vt -0.5 0
vt 0.45 7.049916E-18
vt 0.5625 0.05
vt 0.5625 0.9499999
vt 0.5625 7.049916E-18
vt 0.45 0.05
vt 0.4375 0.05
vt 0.4375 7.049916E-18
vt 0.4375 0.9499999
vt -0.4375 0.05
vt -0.5625 0.05
vt -0.4375 0.9499999
vt -0.5625 0.9499999
vt -0.4175 0.9499999
vt -0.4375 7.049916E-18
vt -0.4175 6.744012E-18
vt 0.4175 0.9499999
vt 0.4175 6.744012E-18
vt 0.4175 1.379393E-17
vt 0.4175 0.9
vt 0.5825 1.409983E-17
vt 0.5825 0.9
vt -0.5825 1.409983E-17
vt -0.4175 0.9
vt -0.4175 1.379393E-17
vt -0.5825 0.9
vt 0.4 1.379393E-17
vt 0.4 0.9
vt 0.45 6.744012E-18
vt -0.4 0.9
vt -0.4 1.379393E-17
vt -0.45 6.744012E-18
vt 0.4 1.409983E-17
vt -0.4 1.409983E-17
vt 0.5825 7.049916E-18
vt 0.5825 0.9499999
vt -0.5825 0.9499999
vt -0.5625 7.049916E-18
vt -0.5825 7.049916E-18

usemtl lightStone (Instance)
usemap lightStone (Instance)
f 3/3/1 2/2/1 1/1/1
f 2/2/1 3/3/1 4/4/1
f 7/7/2 6/6/2 5/5/2
f 6/6/2 7/7/2 8/8/2
f 4/4/3 10/10/3 9/9/3
f 10/10/3 4/4/3 3/3/3
f 6/13/4 9/12/4 11/11/4
f 9/12/4 6/13/4 4/14/4
f 4/14/4 6/13/4 8/15/4
f 4/14/4 8/15/4 2/16/4
f 3/13/5 12/17/5 10/11/5
f 13/18/5 12/17/5 3/13/5
f 14/19/5 12/17/5 13/18/5
f 12/17/5 14/19/5 15/20/5
f 13/18/5 3/13/5 16/21/5
f 16/21/5 3/13/5 1/15/5
f 13/18/5 16/21/5 17/22/5
f 11/23/6 5/5/6 6/6/6
f 5/5/6 11/23/6 18/24/6
f 21/27/5 20/26/5 19/25/5
f 20/26/5 21/27/5 22/28/5
f 22/28/5 21/27/5 18/12/5
f 18/12/5 21/27/5 5/14/5
f 5/14/5 21/27/5 23/29/5
f 23/29/5 21/27/5 24/30/5
f 7/16/5 5/14/5 23/29/5
f 11/4/7 25/32/7 18/31/7
f 25/32/7 11/4/7 9/6/7
f 25/32/7 9/6/7 26/33/7
f 26/33/7 9/6/7 27/34/7
f 27/34/7 9/6/7 12/35/7
f 12/35/7 9/6/7 10/36/7
f 25/32/7 22/37/7 18/31/7
f 22/40/4 25/39/4 28/38/4
f 1/31/8 29/41/8 16/37/8
f 29/41/8 1/31/8 30/32/8
f 2/4/8 30/32/8 1/31/8
f 2/4/8 31/33/8 30/32/8
f 8/6/8 31/33/8 2/4/8
f 8/6/8 23/35/8 31/33/8
f 23/35/8 8/6/8 7/36/8
f 31/44/4 23/43/4 32/42/4

usemtl stone (Instance)
usemap stone (Instance)
f 31/47/9 28/46/9 32/45/9
f 28/46/9 31/47/9 25/48/9
f 32/45/9 33/49/9 31/47/9
f 23/50/9 33/49/9 32/45/9
f 33/49/9 23/50/9 24/51/9
f 32/42/10 28/38/10 31/44/10
f 25/39/10 31/44/10 28/38/10
f 31/21/4 26/28/4 25/17/4
f 26/28/4 31/21/4 30/29/4
f 33/22/4 30/29/4 31/21/4
f 30/29/4 33/22/4 34/30/4
f 25/28/5 26/17/5 31/29/5
f 30/21/5 31/29/5 26/17/5
f 26/39/10 29/42/10 27/38/10
f 29/42/10 26/39/10 30/44/10
f 34/52/10 29/42/10 30/44/10
f 34/52/10 16/43/10 29/42/10
f 16/43/10 34/52/10 17/53/10
f 27/46/9 29/45/9 26/48/9
f 30/47/9 26/48/9 29/45/9
f 19/56/10 35/55/10 21/54/10
f 35/55/10 19/56/10 36/57/10
f 21/60/9 35/59/9 19/58/9
f 36/61/9 19/58/9 35/59/9
f 37/59/9 14/58/9 13/60/9
f 14/58/9 37/59/9 38/61/9
f 13/54/10 14/56/10 37/55/10
f 38/57/10 37/55/10 14/56/10
f 37/18/5 36/25/5 38/19/5
f 36/25/5 37/18/5 35/27/5
f 38/25/4 36/19/4 37/27/4
f 35/18/4 37/27/4 36/19/4
f 17/64/8 37/63/8 13/62/8
f 34/32/8 37/63/8 17/64/8
f 34/32/8 35/65/8 37/63/8
f 33/33/8 35/65/8 34/32/8
f 33/33/8 21/66/8 35/65/8
f 21/66/8 33/33/8 24/67/8
f 15/37/8 38/63/8 14/68/8
f 39/32/8 38/63/8 15/37/8
f 39/32/8 36/65/8 38/63/8
f 40/33/8 36/65/8 39/32/8
f 40/33/8 19/69/8 36/65/8
f 19/69/8 40/33/8 20/35/8
f 14/69/7 38/65/7 15/35/7
f 15/35/7 38/65/7 39/33/7
f 38/65/7 36/63/7 39/33/7
f 39/33/7 36/63/7 40/32/7
f 36/63/7 19/68/7 40/32/7
f 20/37/7 40/32/7 19/68/7
f 40/71/10 22/40/10 20/70/10
f 22/40/10 40/71/10 28/38/10
f 28/38/10 40/71/10 25/39/10
f 20/74/9 22/73/9 40/72/9
f 28/46/9 40/72/9 22/73/9
f 25/48/9 40/72/9 28/46/9
f 27/46/9 15/74/9 12/73/9
f 15/74/9 27/46/9 39/72/9
f 39/72/9 27/46/9 26/48/9
f 12/40/10 15/70/10 27/38/10
f 39/71/10 27/38/10 15/70/10
f 26/39/10 27/38/10 39/71/10
f 26/17/5 40/26/5 39/20/5
f 40/26/5 26/17/5 25/28/5
f 39/26/4 40/20/4 26/28/4
f 25/17/4 26/28/4 40/20/4
