# Made using Asset Forge (www.assetforge.io) version 1.3 

mtllib domedCeiling.mtl 

v -0.5 0 -0.5
v -0.5 0.03619293 -0.4214633
v 0.5 0 -0.5
v 0.5 0.03619293 -0.4214633
v -0.5 0 0.5
v 0.5 0 0.5
v -0.5 0.03619293 0.4214633
v 0.5 0.03619293 0.4214633
v -0.5 0.0661144 0.3403297
v 0.5 0.0661144 0.3403297
v -0.5 0.08958001 0.2570992
v 0.5 0.08958001 0.2570992
v -0.5 0.1064452 0.1722846
v 0.5 0.1064452 0.1722846
v -0.5 0.1166061 0.08640851
v 0.5 0.1166061 0.08640851
v -0.5 0.12 -5.414336E-16
v 0.5 0.12 -5.414336E-16
v -0.5 0.1166061 -0.08640851
v 0.5 0.1166061 -0.08640851
v -0.5 0.1064452 -0.1722846
v 0.5 0.1064452 -0.1722846
v -0.5 0.08958001 -0.2570992
v 0.5 0.08958001 -0.2570992
v -0.5 0.0661144 -0.3403297
v 0.5 0.0661144 -0.3403297
vn 0 -0.9082003 0.4185358
vn 0 -0.9188395 0.3946315
vn 0 -0.9288563 0.3704404
vn 0 0.9082003 -0.4185358
vn 0 0.9188395 -0.3946315
vn 0 0.9288563 -0.3704404
vn 0 -0.9082003 -0.4185358
vn 0 -0.9239271 -0.3825687
vn 0 0.9239271 0.3825687
vn 0 0.9082003 0.4185358
vn 0 -0.95505 -0.2964449
vn 0 -0.9469615 -0.3213471
vn 0 0.9469615 0.3213471
vn 0 0.95505 0.2964449
vn 0 -0.9753591 -0.220623
vn 0 -0.9692488 -0.2460829
vn 0 0.9692488 0.2460829
vn 0 0.9753591 0.220623
vn 0 -0.9896588 -0.1434417
vn 0 -0.9855641 -0.1693024
vn 0 0.9855641 0.1693024
vn 0 0.9896588 0.1434417
vn 0 -0.9978606 -0.06537656
vn 0 -0.9958071 -0.09147874
vn 0 0.9958071 0.09147874
vn 0 0.9978606 0.06537656
vn 0 -0.9999143 0.01309146
vn 0 -0.9999143 -0.01309146
vn 0 0.9999143 0.01309146
vn 0 0.9999143 -0.01309146
vn 0 -0.9958071 0.09147874
vn 0 -0.9978606 0.06537655
vn 0 0.9978606 -0.06537655
vn 0 0.9958071 -0.09147874
vn 0 -0.9855641 0.1693024
vn 0 -0.9896588 0.1434417
vn 0 0.9896588 -0.1434417
vn 0 0.9855641 -0.1693024
vn 0 -0.9692488 0.2460829
vn 0 -0.9753591 0.220623
vn 0 0.9753591 -0.220623
vn 0 0.9692488 -0.2460829
vn 0 -0.9469615 0.3213471
vn 0 -0.95505 0.2964449
vn 0 0.95505 -0.2964449
vn 0 0.9469615 -0.3213471
vt 0.5 0.5
vt 0.5 0.4214633
vt -0.5 0.5
vt -0.5 0.4214633
vt -0.5 -0.5
vt 0.5 -0.4214633
vt 0.5 -0.5
vt -0.5 -0.4214633
vt 0.5 -0.3403297
vt -0.5 -0.3403297
vt -0.5 0.3403297
vt 0.5 0.3403297
vt 0.5 -0.2570992
vt -0.5 -0.2570992
vt -0.5 0.2570992
vt 0.5 0.2570992
vt 0.5 -0.1722846
vt -0.5 -0.1722846
vt -0.5 0.1722846
vt 0.5 0.1722846
vt 0.5 -0.08640851
vt -0.5 -0.08640851
vt -0.5 0.08640851
vt 0.5 0.08640851
vt 0.5 5.414336E-16
vt -0.5 5.414336E-16
vt -0.5 -5.414336E-16
vt 0.5 -5.414336E-16

usemtl _defaultMat (Instance) (Instance)
usemap _defaultMat (Instance) (Instance)
f 3/3/1 2/2/2 1/1/1
f 2/2/2 3/3/1 4/4/3
f 1/7/4 2/6/5 3/5/4
f 4/8/6 3/5/4 2/6/5
f 7/6/8 6/5/7 5/7/7
f 6/5/7 7/6/8 8/8/8
f 5/1/10 6/3/10 7/2/9
f 8/4/9 7/2/9 6/3/10
f 10/10/12 7/6/8 9/9/11
f 7/6/8 10/10/12 8/8/8
f 9/12/14 7/2/9 10/11/13
f 8/4/9 10/11/13 7/2/9
f 12/14/16 9/9/11 11/13/15
f 9/9/11 12/14/16 10/10/12
f 11/16/18 9/12/14 12/15/17
f 10/11/13 12/15/17 9/12/14
f 14/18/20 11/13/15 13/17/19
f 11/13/15 14/18/20 12/14/16
f 13/20/22 11/16/18 14/19/21
f 12/15/17 14/19/21 11/16/18
f 16/22/24 13/17/19 15/21/23
f 13/17/19 16/22/24 14/18/20
f 15/24/26 13/20/22 16/23/25
f 14/19/21 16/23/25 13/20/22
f 18/26/28 15/21/23 17/25/27
f 15/21/23 18/26/28 16/22/24
f 17/28/30 15/24/26 18/27/29
f 16/23/25 18/27/29 15/24/26
f 20/23/32 17/25/27 19/24/31
f 17/25/27 20/23/32 18/26/28
f 19/21/34 17/28/30 20/22/33
f 18/27/29 20/22/33 17/28/30
f 22/19/36 19/24/31 21/20/35
f 19/24/31 22/19/36 20/23/32
f 21/17/38 19/21/34 22/18/37
f 20/22/33 22/18/37 19/21/34
f 24/15/40 21/20/35 23/16/39
f 21/20/35 24/15/40 22/19/36
f 23/13/42 21/17/38 24/14/41
f 22/18/37 24/14/41 21/17/38
f 26/11/44 23/16/39 25/12/43
f 23/16/39 26/11/44 24/15/40
f 25/9/46 23/13/42 26/10/45
f 24/14/41 26/10/45 23/13/42
f 4/4/3 25/12/43 2/2/2
f 25/12/43 4/4/3 26/11/44
f 2/6/5 25/9/46 4/8/6
f 26/10/45 4/8/6 25/9/46
