# Made using Asset Forge (www.assetforge.io) version 1.3 

mtllib enemyGun.mtl 

v 0.5000001 2.5 -0.4999999
v 0.5 2.5 0.5
v -0.5 2.5 -0.5
v -0.5000001 2.5 0.4999999
v -0.4999998 0 0.4999999
v 0.5000002 0 0.5
vn -2.185569E-07 2.5 -1.910685E-14
vn -8.742278E-08 0 1
vn 1 8.742278E-08 8.742278E-08
vn -1 -8.742278E-08 -8.742278E-08
vn 2.163603E-07 -1.767767 -0.7071068
vt -0.5000001 -0.5
vt -0.5 0.5000001
vt 0.5 -0.5000001
vt 0.5000001 0.5
vt -0.5000001 2.5
vt 0.5 2.5
vt -0.4999998 -4.371139E-08
vt 0.5000002 4.371139E-08
vt -0.5000001 4.371139E-08
vt 0.5 -4.371139E-08
vt -0.5000002 4.371139E-08
vt 0.4999998 -4.371139E-08

usemtl _defaultMat (Instance)
usemap _defaultMat (Instance)
f 3/3/1 2/2/1 1/1/1
f 2/2/1 3/3/1 4/4/1
f 5/7/2 2/6/2 4/5/2
f 2/6/2 5/7/2 6/8/2
f 1/6/3 2/5/3 6/9/3
f 3/5/4 5/10/4 4/6/4
f 6/11/5 3/6/5 1/5/5
f 3/6/5 6/11/5 5/12/5
v -1.788139E-07 3.5 0.5
v 1.639128E-07 3.5 -3.3
v 0.5000002 2.5 -3.3
v 1.639128E-07 2.5 -3.3
v 0.4999998 2.5 0.5
v 0.4999998 3.5 0.5
v -1.788139E-07 2.5 0.5
vn 0.3535534 0.7071068 3.090862E-08
vn 3.322066E-07 0 -3.8
vn 0.5 0 4.371139E-08
vn 2.349055E-07 0.7071068 -2.687006
vn -3.322066E-07 0 3.8
vn 0 -1 0
vn -0.5 0 -4.371139E-08
vt -0.5 3.5
vt 3.3 3.5
vt 3.3 2.5
vt -1.661033E-07 2.5
vt -0.5000002 2.5
vt -1.661033E-07 3.5
vt -0.5 2.5
vt -0.5 3.5
vt -0.4999998 0.5
vt 1.661033E-07 0.5
vt -0.5000002 -3.3
vt 0.4999998 2.5
vt 0.4999998 3.5
vt -1.661033E-07 3.3
vt 1.661033E-07 -0.5
vt -0.5000002 3.3
vt -0.4999998 -0.5
vt 0.5 3.5
vt -3.3 3.5
vt -3.3 2.5

usemtl _defaultMat (Instance) (Instance)
usemap _defaultMat (Instance) (Instance)
f 9/15/6 8/14/6 7/13/6
f 8/18/7 9/17/7 10/16/7
f 9/15/8 12/20/8 11/19/8
f 9/23/9 7/22/9 12/21/9
f 12/25/10 13/16/10 11/24/10
f 13/16/10 12/25/10 7/18/10
f 9/28/11 13/27/11 10/26/11
f 13/27/11 9/28/11 11/29/11
f 8/31/12 13/6/12 7/30/12
f 13/6/12 8/31/12 10/32/12
v 0 3.5 -3.3
v 0 3.5 0.5
v -0.5 2.5 0.5
v 0 2.5 0.5
v -0.5 2.5 -3.3
v -0.5 3.5 -3.3
v 0 2.5 -3.3
vn -0.3535534 0.7071068 0
vn 0 0 3.8
vn -0.5 0 0
vn 0 0.7071068 2.687006
vn 0 0 -3.8
vn 0.5 0 0
vt 0.5 3.5
vt 0.5 2.5
vt 0 2.5
vt 0 3.5
vt 0.5 -3.3
vt 0 -3.3
vt 0.5 0.5
vt 0 -0.5
vt 0 3.3
vt 0.5 -0.5
vt 0.5 3.3

usemtl _defaultMat (Instance) (Instance)
usemap _defaultMat (Instance) (Instance)
f 16/34/13 15/33/13 14/31/13
f 15/36/14 16/19/14 17/35/14
f 16/34/15 19/31/15 18/32/15
f 16/39/16 14/38/16 19/37/16
f 19/33/17 20/35/17 18/34/17
f 20/35/17 19/33/17 14/36/17
f 16/42/11 20/41/11 17/40/11
f 20/41/11 16/42/11 18/43/11
f 15/20/18 20/15/18 14/14/18
f 20/15/18 15/20/18 17/19/18
