# Made using Asset Forge (www.assetforge.io) version 1.3 

mtllib ladder.mtl 

v -0.1003336 0.1498216 0.88
v -0.1192357 0.1850737 0.88
v -0.1003336 0.1498216 1.12
v -0.1192357 0.1850737 1.12
v -0.2541018 0.5212449 0.88
v -0.2541018 0.5212449 1.12
v -0.2893539 0.502343 0.88
v -0.2893539 0.502343 1.12
v -0.4484856 0.904931 0.83
v 0.02406517 0.02362754 0.83
v -0.4484856 0.904931 0.87
v 0.02406517 0.02362754 0.87
v -0.355511 0.6257254 0.88
v -0.3202589 0.6446275 0.88
v -0.1501406 0.3273582 0.88
v -0.1853928 0.3084562 0.88
v -0.1501406 0.3273582 1.12
v -0.1853928 0.3084562 1.12
v -0.02 -4.793943E-16 0.88
v 0.01525214 0.01890203 0.88
v -0.06508149 0.1687236 0.88
v -0.06508149 0.1687236 1.12
v -0.08398353 0.2039758 1.12
v -0.08398353 0.2039758 0.88
v -0.2042948 0.3437084 0.88
v -0.1690427 0.3626104 0.88
v -0.2042948 0.3437084 1.12
v -0.1690427 0.3626104 1.12
v -0.02881303 -0.004725507 0.83
v -0.02 -6.570522E-16 0.82
v -0.5013638 0.876578 0.83
v -0.4925507 0.8813035 0.82
v -0.4242201 0.8385142 0.88
v -0.4242201 0.8385142 1.12
v -0.4594722 0.8196121 0.88
v -0.4594722 0.8196121 1.12
v 0.01525214 0.01890203 0.82
v -0.4572986 0.9002055 0.82
v -0.4925507 0.8813035 0.88
v -0.4572986 0.9002055 0.88
v -0.5013638 0.876578 0.87
v -0.3391609 0.6798796 0.88
v -0.3391609 0.6798796 1.12
v -0.3202589 0.6446275 1.12
v -0.2704519 0.4670908 1.12
v -0.2351998 0.4859928 1.12
v -0.5013638 0.876578 1.13
v -0.5013638 0.876578 1.17
v -0.02881303 -0.004725507 1.13
v -0.02881303 -0.004725507 1.17
v -0.02881303 -0.004725507 0.87
v 0.02406517 0.02362754 1.13
v 0.01525214 0.01890203 1.12
v 0.02406517 0.02362754 1.17
v 0.01525214 0.01890203 1.18
v -0.02 -4.455547E-16 1.12
v -0.02 -2.678968E-16 1.18
v -0.2351998 0.4859928 0.88
v -0.2704519 0.4670908 0.88
v -0.405318 0.8032621 0.88
v -0.3744131 0.6609776 0.88
v -0.4405702 0.7843601 0.88
v -0.4925507 0.8813035 1.12
v -0.4572986 0.9002055 1.12
v -0.3744131 0.6609776 1.12
v -0.355511 0.6257254 1.12
v -0.4405702 0.7843601 1.12
v -0.405318 0.8032621 1.12
v -0.4925507 0.8813035 1.18
v -0.4484856 0.904931 1.13
v -0.4484856 0.904931 1.17
v -0.4572986 0.9002055 1.18
vn -0.8813035 -0.4725508 0
vn -0.4725498 0.881304 0
vn 0.8813035 0.4725508 0
vn 0 0 1
vn 0.472551 -0.8813033 0
vn -0.4725508 0.8813035 0
vn 0 0 -1
vn -0.6231755 -0.3341437 -0.7071069
vn -0.6231757 -0.3341439 -0.7071066
vn -0.623176 -0.334144 -0.7071064
vn -0.4725512 0.8813032 0
vn -0.8813036 -0.4725506 0
vn 0.6231755 0.3341437 -0.7071069
vn 0.6231757 0.3341439 -0.7071066
vn 0.623176 0.334144 -0.7071064
vn -0.4725494 0.8813041 0
vn -0.4725501 0.8813038 0
vn -0.4725507 0.8813035 0
vn -0.47255 0.8813038 0
vn 0.8813037 0.4725503 0
vn -0.4725506 0.8813035 0
vn 0.4725508 -0.8813035 0
vn 0.4725508 -0.8813034 0
vn 0.8813034 0.4725508 0
vn 0.6231755 0.3341438 0.7071069
vn 0.6231751 0.3341436 0.7071074
vn 0.6231758 0.3341439 0.7071065
vn 0.6231756 0.3341438 0.7071068
vn 0.6231748 0.3341434 0.7071077
vn 0.6231753 0.3341436 0.7071072
vn 0.6231756 0.3341438 0.7071068
vn 0.6231756 0.3341438 0.7071066
vn 0.6231744 0.3341433 0.7071081
vn 0.6231769 0.3341444 0.7071054
vn 0.6231779 0.3341449 0.7071043
vn 0.6231748 0.3341436 0.7071075
vn 0.6231748 0.3341435 0.7071075
vn 0.6231761 0.3341438 0.7071064
vn -0.6231755 -0.3341437 0.7071069
vn -0.6231765 -0.3341443 0.7071059
vn -0.6231761 -0.3341441 0.7071062
vn -0.6231772 -0.3341447 0.707105
vn -0.6231775 -0.3341449 0.7071046
vn -0.6231745 -0.3341432 0.707108
vn -0.6231745 -0.3341432 0.7071081
vn -0.6231772 -0.3341448 0.7071048
vn -0.6231769 -0.3341446 0.7071052
vn -0.6231771 -0.3341446 0.7071051
vn -0.6231775 -0.3341449 0.7071046
vn -0.6231768 -0.3341444 0.7071055
vn -0.623176 -0.3341437 0.7071065
vn -0.6231761 -0.3341438 0.7071064
vn -0.472551 0.8813033 0
vn -0.6231761 -0.3341441 -0.7071062
vn -0.6231765 -0.3341443 -0.7071059
vn -0.6231772 -0.3341447 -0.707105
vn -0.6231775 -0.3341449 -0.7071046
vn -0.6231745 -0.3341432 -0.707108
vn -0.6231745 -0.3341432 -0.7071081
vn -0.6231772 -0.3341448 -0.7071048
vn -0.6231769 -0.3341446 -0.7071052
vn -0.6231771 -0.3341446 -0.7071051
vn -0.6231775 -0.3341449 -0.7071046
vn -0.6231768 -0.3341444 -0.7071055
vn -0.623176 -0.3341437 -0.7071065
vn -0.6231761 -0.3341438 -0.7071064
vn 0.8813032 0.4725512 0
vn -0.6231757 -0.3341439 0.7071066
vn -0.623176 -0.334144 0.7071064
vn 0.4725501 -0.8813038 0
vn 0.6231755 0.3341438 -0.7071069
vn 0.6231758 0.3341439 -0.7071065
vn 0.6231751 0.3341436 -0.7071074
vn 0.6231756 0.3341438 -0.7071068
vn 0.6231748 0.3341434 -0.7071077
vn 0.6231753 0.3341436 -0.7071072
vn 0.6231756 0.3341438 -0.7071068
vn 0.6231756 0.3341438 -0.7071066
vn 0.6231744 0.3341433 -0.7071081
vn 0.6231769 0.3341444 -0.7071054
vn 0.6231779 0.3341449 -0.7071043
vn 0.6231748 0.3341436 -0.7071075
vn 0.6231748 0.3341435 -0.7071075
vn 0.6231761 0.3341438 -0.7071064
vn -0.8813037 -0.4725503 0
vn 0.6231755 0.3341437 0.7071069
vn 0.6231757 0.3341439 0.7071066
vn 0.623176 0.334144 0.7071064
vn -0.8813034 -0.4725508 0
vt 0.88 0.1498216
vt 0.88 0.1850737
vt 1.12 0.1498216
vt 1.12 0.1850737
vt 0.2541018 0.88
vt 0.2541018 1.12
vt 0.2893539 0.88
vt 0.2893539 1.12
vt -0.83 0.904931
vt -0.83 0.02362754
vt -0.87 0.904931
vt -0.87 0.02362754
vt -0.2893539 0.502343
vt -0.355511 0.6257254
vt -0.2541018 0.5212449
vt -0.3202589 0.6446275
vt 0.1501406 -0.88
vt 0.1853928 -0.88
vt 0.1501406 -1.12
vt 0.1853928 -1.12
vt -0.02 -4.793943E-16
vt -0.1003336 0.1498216
vt 0.01525214 0.01890203
vt -0.06508149 0.1687236
vt -0.1192357 0.1850737
vt -0.08398353 0.2039758
vt 0.08398353 0.88
vt 0.08398353 1.12
vt 0.1192357 0.88
vt 0.1192357 1.12
vt 0.1853928 0.3084562
vt 0.1501406 0.3273582
vt 0.2042948 0.3437084
vt 0.1690427 0.3626104
vt -0.1853928 0.3084562
vt -0.2042948 0.3437084
vt -0.1501406 0.3273582
vt -0.1690427 0.3626104
vt -0.88 0.2039758
vt -0.88 0.1687236
vt -1.12 0.2039758
vt -1.12 0.1687236
vt 0.02881303 -0.004725507
vt 0.02 -6.570522E-16
vt 0.5013638 0.876578
vt 0.4925507 0.8813035
vt 0.4242201 0.88
vt 0.4242201 1.12
vt 0.4594722 0.88
vt 0.4594722 1.12
vt 0.88 0.3437084
vt 1.12 0.3437084
vt 0.88 0.3084562
vt 1.12 0.3084562
vt -0.01525214 0.01890203
vt -0.02406517 0.02362754
vt 0.4572986 0.9002055
vt 0.4484856 0.904931
vt -0.4594722 0.8196121
vt -0.4925507 0.8813035
vt -0.4242201 0.8385142
vt -0.4572986 0.9002055
vt 0.4484856 0.83
vt 0.4484856 0.87
vt 0.4572986 0.82
vt 0.4572986 0.88
vt 0.4925507 0.82
vt 0.4925507 0.88
vt 0.5013638 0.83
vt 0.5013638 0.87
vt -0.88 0.6798796
vt -0.88 0.6446275
vt -1.12 0.6798796
vt -1.12 0.6446275
vt 0.1690427 0.88
vt 0.1690427 1.12
vt 0.2042948 0.88
vt 0.2042948 1.12
vt -0.2704519 0.4670908
vt -0.2351998 0.4859928
vt -0.88 0.3626104
vt -0.88 0.3273582
vt -1.12 0.3626104
vt -1.12 0.3273582
vt 1.13 0.876578
vt 1.17 0.876578
vt 1.13 -0.004725507
vt 1.17 -0.004725507
vt 0.83 0.876578
vt 0.87 0.876578
vt 0.83 -0.004725507
vt 0.87 -0.004725507
vt 0.06508149 -0.88
vt 0.1003336 -0.88
vt 0.06508149 -1.12
vt 0.1003336 -1.12
vt -0.02406517 -1.13
vt -0.01525214 -1.12
vt -0.02406517 -1.17
vt -0.01525214 -1.18
vt 0.02 -1.12
vt 0.02 -1.18
vt 0.02881303 -1.17
vt 0.02881303 -1.13
vt -0.88 0.5212449
vt -0.88 0.4859928
vt -1.12 0.5212449
vt -1.12 0.4859928
vt 0.88 0.4670908
vt 0.88 0.502343
vt 1.12 0.4670908
vt 1.12 0.502343
vt 0.02406517 0.02362754
vt -0.4484856 0.904931
vt -0.3391609 0.6798796
vt -0.405318 0.8032621
vt -0.3744131 0.6609776
vt -0.4405702 0.7843601
vt 0.02 -4.455547E-16
vt 0.1003336 0.1498216
vt 0.06508149 0.1687236
vt -0.02881303 -0.004725507
vt -0.5013638 0.876578
vt 0.4594722 0.8196121
vt 0.4242201 0.8385142
vt 0.3391609 0.88
vt 0.3391609 1.12
vt 0.3744131 0.88
vt 0.3744131 1.12
vt 0.4405702 0.7843601
vt 0.405318 0.8032621
vt 0.2704519 0.4670908
vt 0.2351998 0.4859928
vt 0.1192357 0.1850737
vt 0.2893539 0.502343
vt 0.355511 0.6257254
vt 0.3744131 0.6609776
vt -0.88 0.8385142
vt -0.88 0.8032621
vt -1.12 0.8385142
vt -1.12 0.8032621
vt 0.405318 -0.88
vt 0.4405702 -0.88
vt 0.405318 -1.12
vt 0.4405702 -1.12
vt -0.02 -2.678968E-16
vt 0.3202589 -0.88
vt 0.355511 -0.88
vt 0.3202589 -1.12
vt 0.355511 -1.12
vt -1.13 0.904931
vt -1.13 0.02362754
vt -1.17 0.904931
vt -1.17 0.02362754
vt 0.08398353 0.2039758
vt 0.2541018 0.5212449
vt 0.3202589 0.6446275
vt 0.3391609 0.6798796
vt 0.2351998 -0.88
vt 0.2704519 -0.88
vt 0.2351998 -1.12
vt 0.2704519 -1.12
vt 0.88 0.7843601
vt 0.88 0.8196121
vt 1.12 0.7843601
vt 1.12 0.8196121
vt -0.02406517 -0.87
vt -0.02406517 -0.83
vt -0.01525214 -0.88
vt -0.01525214 -0.82
vt 0.02 -0.88
vt 0.02 -0.82
vt 0.02881303 -0.87
vt 0.02881303 -0.83
vt 0.4484856 1.13
vt 0.4484856 1.17
vt 0.4572986 1.12
vt 0.4572986 1.18
vt 0.4925507 1.12
vt 0.4925507 1.18
vt 0.5013638 1.13
vt 0.5013638 1.17
vt 0.88 0.6257254
vt 0.88 0.6609776
vt 1.12 0.6257254
vt 1.12 0.6609776

usemtl lightStone (Instance) (Instance)
usemap lightStone (Instance) (Instance)
f 3/3/1 2/2/1 1/1/1
f 2/2/1 3/3/1 4/4/1
f 7/7/2 6/6/2 5/5/2
f 6/6/2 7/7/2 8/8/2
f 11/11/3 10/10/3 9/9/3
f 10/10/3 11/11/3 12/12/3
f 5/15/4 13/14/4 7/13/4
f 13/14/4 5/15/4 14/16/4
f 17/19/5 16/18/5 15/17/5
f 16/18/5 17/19/5 18/20/5
f 20/23/4 1/22/4 19/21/4
f 1/22/4 20/23/4 21/24/4
f 22/24/4 4/25/4 3/22/4
f 4/25/4 22/24/4 23/26/4
f 2/29/6 23/28/6 24/27/6
f 23/28/6 2/29/6 4/30/6
f 25/33/7 15/32/7 16/31/7
f 15/32/7 25/33/7 26/34/7
f 17/37/4 27/36/4 18/35/4
f 27/36/4 17/37/4 28/38/4
f 23/41/3 21/40/3 24/39/3
f 21/40/3 23/41/3 22/42/3
f 31/45/9 30/44/9 29/43/8
f 30/44/9 31/45/9 32/46/10
f 35/49/11 34/48/11 33/47/11
f 34/48/11 35/49/11 36/50/11
f 16/53/12 27/52/12 25/51/12
f 27/52/12 16/53/12 18/54/12
f 38/57/14 10/56/14 37/55/13
f 10/56/14 38/57/14 9/58/15
f 33/61/4 39/60/4 35/59/4
f 39/60/4 33/61/4 40/62/4
f 38/65/17 11/64/16 9/63/16
f 11/64/16 38/65/17 40/66/18
f 40/66/18 38/65/17 32/67/18
f 40/66/18 32/67/18 39/68/19
f 39/68/19 32/67/18 31/69/16
f 39/68/19 31/69/16 41/70/16
f 43/73/20 14/72/20 42/71/20
f 14/72/20 43/73/20 44/74/20
f 25/77/21 28/76/21 26/75/21
f 28/76/21 25/77/21 27/78/21
f 24/26/4 16/35/4 2/25/4
f 16/35/4 24/26/4 15/37/4
f 46/80/4 8/13/4 45/79/4
f 8/13/4 46/80/4 6/15/4
f 28/83/3 15/82/3 26/81/3
f 15/82/3 28/83/3 17/84/3
f 49/87/1 48/86/1 47/85/1
f 48/86/1 49/87/1 50/88/1
f 29/91/1 41/90/1 31/89/1
f 41/90/1 29/91/1 51/92/1
f 22/95/22 1/94/22 21/93/22
f 1/94/22 22/95/22 3/96/22
f 54/99/22 53/98/22 52/97/23
f 53/98/22 54/99/22 55/100/22
f 53/98/22 55/100/22 56/101/22
f 56/101/22 55/100/22 57/102/22
f 56/101/22 57/102/22 50/103/22
f 56/101/22 50/103/22 49/104/22
f 6/107/24 58/106/24 5/105/24
f 58/106/24 6/107/24 46/108/24
f 45/111/1 7/110/1 59/109/1
f 7/110/1 45/111/1 8/112/1
f 12/113/27 21/24/26 20/23/25
f 21/24/26 12/113/27 11/114/28
f 21/24/26 11/114/28 24/26/29
f 24/26/29 11/114/28 15/37/30
f 15/37/30 11/114/28 26/38/31
f 26/38/31 11/114/28 58/80/32
f 58/80/32 11/114/28 5/15/33
f 5/15/33 11/114/28 14/16/34
f 14/16/34 11/114/28 42/115/35
f 42/115/35 11/114/28 60/116/36
f 60/116/36 11/114/28 33/61/37
f 33/61/37 11/114/28 40/62/38
f 32/46/7 37/55/7 30/44/7
f 37/55/7 32/46/7 38/57/7
f 42/115/4 62/118/4 61/117/4
f 62/118/4 42/115/4 60/116/4
f 3/120/7 53/55/7 56/119/7
f 53/55/7 3/120/7 22/121/7
f 19/21/41 41/123/40 51/122/39
f 41/123/40 19/21/41 1/22/42
f 41/123/40 1/22/42 2/25/43
f 41/123/40 2/25/43 16/35/44
f 41/123/40 16/35/44 25/36/45
f 41/123/40 25/36/45 59/79/46
f 41/123/40 59/79/46 7/13/47
f 41/123/40 7/13/47 13/14/48
f 41/123/40 13/14/48 61/117/49
f 41/123/40 61/117/49 62/118/50
f 41/123/40 62/118/50 35/59/51
f 41/123/40 35/59/51 39/60/52
f 63/46/7 34/125/7 36/124/7
f 34/125/7 63/46/7 64/57/7
f 61/128/53 43/127/53 42/126/53
f 43/127/53 61/128/53 65/129/53
f 35/124/7 60/131/7 62/130/7
f 60/131/7 35/124/7 33/125/7
f 45/132/7 28/34/7 27/33/7
f 28/34/7 45/132/7 46/133/7
f 47/45/55 56/119/54 49/43/8
f 56/119/54 47/45/55 3/120/56
f 3/120/56 47/45/55 4/134/57
f 4/134/57 47/45/55 18/31/58
f 18/31/58 47/45/55 27/33/59
f 27/33/59 47/45/55 45/132/60
f 45/132/60 47/45/55 8/135/61
f 8/135/61 47/45/55 66/136/62
f 66/136/62 47/45/55 65/137/63
f 65/137/63 47/45/55 67/130/64
f 67/130/64 47/45/55 36/124/65
f 36/124/65 47/45/55 63/46/66
f 34/140/67 60/139/67 33/138/67
f 60/139/67 34/140/67 68/141/67
f 68/144/22 62/143/22 60/142/22
f 62/143/22 68/144/22 67/145/22
f 57/146/68 48/123/68 50/122/39
f 48/123/68 57/146/68 69/60/69
f 44/149/70 13/148/70 14/147/70
f 13/148/70 44/149/70 66/150/70
f 68/116/4 36/59/4 67/118/4
f 36/59/4 68/116/4 34/61/4
f 71/153/3 52/152/3 70/151/3
f 52/152/3 71/153/3 54/154/3
f 22/121/73 52/56/72 53/55/71
f 52/56/72 22/121/73 70/58/74
f 70/58/74 22/121/73 23/155/75
f 70/58/74 23/155/75 17/32/76
f 70/58/74 17/32/76 28/34/77
f 70/58/74 28/34/77 46/133/78
f 70/58/74 46/133/78 6/156/79
f 70/58/74 6/156/79 44/157/80
f 70/58/74 44/157/80 43/158/81
f 70/58/74 43/158/81 68/131/82
f 70/58/74 68/131/82 34/125/83
f 70/58/74 34/125/83 64/57/84
f 61/137/7 14/157/7 13/136/7
f 14/157/7 61/137/7 42/158/7
f 46/161/5 59/160/5 58/159/5
f 59/160/5 46/161/5 45/162/5
f 67/165/85 35/164/85 62/163/85
f 35/164/85 67/165/85 36/166/85
f 20/169/22 10/168/22 12/167/23
f 10/168/22 20/169/22 37/170/22
f 37/170/22 20/169/22 19/171/22
f 37/170/22 19/171/22 30/172/22
f 30/172/22 19/171/22 51/173/22
f 30/172/22 51/173/22 29/174/22
f 54/113/87 72/62/87 55/23/86
f 72/62/87 54/113/87 71/114/88
f 2/134/7 21/121/7 1/120/7
f 21/121/7 2/134/7 24/155/7
f 7/135/7 58/133/7 59/132/7
f 58/133/7 7/135/7 5/156/7
f 26/38/4 59/79/4 25/36/4
f 59/79/4 26/38/4 58/80/4
f 18/31/7 23/155/7 4/134/7
f 23/155/7 18/31/7 17/32/7
f 66/136/7 6/156/7 8/135/7
f 6/156/7 66/136/7 44/157/7
f 64/177/17 71/176/16 70/175/16
f 71/176/16 64/177/17 72/178/18
f 72/178/18 64/177/17 63/179/18
f 72/178/18 63/179/18 69/180/19
f 69/180/19 63/179/18 47/181/16
f 69/180/19 47/181/16 48/182/16
f 66/185/89 61/184/89 13/183/89
f 61/184/89 66/185/89 65/186/89
f 55/23/4 69/60/4 57/146/4
f 69/60/4 55/23/4 72/62/4
f 44/16/4 65/117/4 66/14/4
f 65/117/4 44/16/4 43/115/4
f 67/130/7 43/158/7 65/137/7
f 43/158/7 67/130/7 68/131/7
