# Made using Asset Forge (www.assetforge.io) version 1.3 

mtllib Counter.mtl 

v 1.5 0 0.5
v 1.5 0 -0.5
v -2.5 0 0.5
v -2.5 0 -0.5
v -2.5 0.8 -0.5
v -2.5 0.8 0.5
v 1.5 0.8 -0.5
v 1.5 0.8 0.5
vn 0 -0.8 0
vn -4 0 0
vn 0 0 -1
vn 0 0 1
vn 4 0 0
vn 0 0.8 0
vt -1.5 -0.5
vt -1.5 0.5
vt 2.5 -0.5
vt 2.5 0.5
vt -0.5 0
vt -0.5 0.8
vt 0.5 0
vt 0.5 0.8
vt 2.5 0
vt -1.5 0
vt 2.5 0.8
vt -1.5 0.8
vt 1.5 0
vt -2.5 0
vt 1.5 0.8
vt -2.5 0.8

usemtl _defaultMat (Instance)
usemap _defaultMat (Instance)
f 3/3/1 2/2/1 1/1/1
f 2/2/1 3/3/1 4/4/1
f 3/7/2 5/6/2 4/5/2
f 5/6/2 3/7/2 6/8/2
f 5/11/3 2/10/3 4/9/3
f 2/10/3 5/11/3 7/12/3
f 8/15/4 3/14/4 1/13/4
f 3/14/4 8/15/4 6/16/4
f 8/6/5 2/7/5 7/8/5
f 2/7/5 8/6/5 1/5/5
f 5/3/6 8/2/6 7/1/6
f 8/2/6 5/3/6 6/4/6
v 1.3 0.8 0.5
v 1.3 0.8 -0.5
v 1.3 1.8 -0.5
v 1.3 1.8 0.5
v 1.5 1.8 -0.5
v 1.5 1.8 0.5
vn 0 -1 0
vn -0.2 0 0
vn 0.2 0 0
vn 0 1 0
vt -1.3 -0.5
vt -1.3 0.5
vt -0.5 1.8
vt 0.5 1.8
vt -1.3 0.8
vt -1.3 1.8
vt -1.5 1.8
vt 1.3 0.8
vt 1.5 1.8
vt 1.3 1.8

usemtl _defaultMat (Instance) (Instance)
usemap _defaultMat (Instance) (Instance)
f 9/17/7 7/2/7 8/1/7
f 7/2/7 9/17/7 10/18/7
f 9/8/8 11/19/8 10/6/8
f 11/19/8 9/8/8 12/20/8
f 11/22/3 7/12/3 10/21/3
f 7/12/3 11/22/3 13/23/3
f 14/25/4 9/24/4 8/15/4
f 9/24/4 14/25/4 12/26/4
f 14/19/9 7/8/9 13/20/9
f 7/8/9 14/19/9 8/6/9
f 11/17/10 14/2/10 13/1/10
f 14/2/10 11/17/10 12/18/10
v -2.3 0.8 0.5
v -2.3 0.8 -0.5
v -2.5 1.8 -0.5
v -2.5 1.8 0.5
v -2.3 1.8 -0.5
v -2.3 1.8 0.5
vt 2.3 -0.5
vt 2.3 0.5
vt 2.3 0.8
vt 2.5 1.8
vt 2.3 1.8
vt -2.3 0.8
vt -2.3 1.8
vt -2.5 1.8

usemtl _defaultMat (Instance) (Instance)
usemap _defaultMat (Instance) (Instance)
f 6/3/7 16/28/7 15/27/7
f 16/28/7 6/3/7 5/4/7
f 6/8/8 17/19/8 5/6/8
f 17/19/8 6/8/8 18/20/8
f 17/30/3 16/29/3 5/11/3
f 16/29/3 17/30/3 19/31/3
f 20/33/4 6/16/4 15/32/4
f 6/16/4 20/33/4 18/34/4
f 20/19/9 16/8/9 19/20/9
f 16/8/9 20/19/9 15/6/9
f 17/3/10 20/28/10 19/27/10
f 20/28/10 17/3/10 18/4/10
v 1.3 0.8 0.4
v -2.3 0.8 0.5
v -2.3 0.8 0.4
v -2.3 1.8 0.4
v -2.3 1.8 0.5
v 1.3 1.8 0.4
vn -3.6 0 0
vn 0 0 -0.1
vn 0 0 0.1
vn 3.6 0 0
vt -1.3 -0.4
vt 2.3 -0.5
vt 2.3 -0.4
vt 0.4 0.8
vt 0.4 1.8
vt 2.3 0.8
vt 2.3 1.8
vt -2.3 0.8
vt -2.3 1.8
vt -0.4 1.8
vt -0.4 0.8
vt -1.3 0.4
vt 2.3 0.4
vt 2.3 0.5

usemtl _defaultMat (Instance) (Instance)
usemap _defaultMat (Instance) (Instance)
f 22/36/7 21/35/7 9/17/7
f 21/35/7 22/36/7 23/37/7
f 22/8/11 24/39/11 23/38/11
f 24/39/11 22/8/11 25/20/11
f 24/41/12 21/21/12 23/40/12
f 21/21/12 24/41/12 26/22/12
f 12/26/13 22/42/13 9/24/13
f 22/42/13 12/26/13 25/43/13
f 12/19/14 21/45/14 26/44/14
f 21/45/14 12/19/14 9/6/14
f 24/47/10 12/18/10 26/46/10
f 12/18/10 24/47/10 25/48/10
v 1.3 1.2 0.4
v 1.3 1.2 -0.5
v -2.3 1.2 0.4
v -2.3 1.2 -0.5
v -2.3 1.8 -0.5
v -2.3 1.8 0.4
v 1.3 1.8 -0.5
v 1.3 1.8 0.4
vn 0 -0.6 0
vn 0 0 -0.9
vn 0 0 0.9
vn 0 0.6 0
vt -0.5 1.2
vt -0.5 1.8
vt 0.4 1.2
vt 0.4 1.8
vt 2.3 1.2
vt -1.3 1.2
vt 2.3 1.8
vt -1.3 1.8
vt 1.3 1.2
vt -2.3 1.2
vt 1.3 1.8
vt -2.3 1.8
vt 0.5 1.8
vt 0.5 1.2
vt -0.4 1.8
vt -0.4 1.2

usemtl _defaultMat (Instance) (Instance)
usemap _defaultMat (Instance) (Instance)
f 29/37/15 28/18/15 27/35/15
f 28/18/15 29/37/15 30/48/15
f 29/51/11 31/50/11 30/49/11
f 31/50/11 29/51/11 32/52/11
f 31/55/16 28/54/16 30/53/16
f 28/54/16 31/55/16 33/56/16
f 34/59/17 29/58/17 27/57/17
f 29/58/17 34/59/17 32/60/17
f 34/63/14 28/62/14 33/61/14
f 28/62/14 34/63/14 27/64/14
f 31/36/18 34/46/18 33/17/18
f 34/46/18 31/36/18 32/47/18
