# Made using Asset Forge (www.assetforge.io) version 1.3 

mtllib hangarDoor.mtl 

v -0.5625 0 0.5
v -0.5625 1 0.5
v -0.5 -2.707168E-16 0.5625
v -0.5 1 0.5625
v -0.5 -6.316725E-16 -0.5625
v -0.5 1 -0.5625
v -0.5625 0 -0.5
v -0.5625 1 -0.5
v -0.4375 1 0.5
v -0.4375 0 0.5
v -0.4375 1 -0.5
v -0.4375 7.049916E-18 0.45
v -0.46 1.394688E-17 0.4
v -0.54 1.394688E-17 0.4
v -0.5625 7.049916E-18 0.45
v -0.5825 1.379393E-17 0.4
v -0.5825 6.744012E-18 0.45
v -0.4175 1.409983E-17 0.4
v -0.4175 7.049916E-18 0.45
v -0.4375 0 -0.5
v -0.54 1.394688E-17 -0.4
v -0.5625 7.049916E-18 -0.45
v -0.5825 1.379393E-17 -0.4
v -0.5825 6.744012E-18 -0.45
v -0.46 1.394688E-17 -0.4
v -0.4375 7.049916E-18 -0.45
v -0.4175 7.049916E-18 -0.45
v -0.4175 1.409983E-17 -0.4
v -0.4375 0.9499999 -0.45
v -0.4375 0.9499999 0.45
v -0.4375 0.05 0.45
v -0.4375 0.05 -0.45
v -0.5625 0.05 0.45
v -0.5625 0.9499999 0.45
v -0.5625 0.9499999 -0.45
v -0.5625 0.05 -0.45
v -0.5825 0.9499999 -0.45
v -0.5825 0.9499999 0.45
v -0.5825 0.9 -0.4
v -0.54 0.9 -0.4
v -0.46 0.9 0.4
v -0.4175 0.9 0.4
v -0.4175 0.9 -0.4
v -0.46 0.9 -0.4
v -0.5825 0.9 0.4
v -0.4175 0.9499999 0.45
v -0.4175 0.9499999 -0.45
v -0.54 0.9 0.4
v -0.54 0.17 -0.065
v -0.54 0.1 -0.065
v -0.54 0.17 0.065
v -0.54 0.1 0.065
v -0.46 0.17 -0.065
v -0.46 0.1 -0.065
v -0.46 0.17 0.065
v -0.46 0.1 0.065
v -0.5 0.8134781 -0.313478
v -0.5 0.6483833 -0.313478
v -0.5 0.8134781 0.313478
v -0.5 0.6483833 0.313478
v -0.46 0.6483833 -0.313478
v -0.46 0.6483833 0.313478
v -0.46 0.8134781 -0.313478
v -0.46 0.8134781 0.313478
v -0.54 0.6483833 -0.313478
v -0.54 0.6483833 0.313478
v -0.54 0.8134781 0.313478
v -0.54 0.8134781 -0.313478
vn -0.7071068 0 0.7071068
vn -0.7071068 0 -0.7071068
vn 0.7071068 0 0.7071068
vn 0 1 0
vn 0 -1 0
vn 0.7071068 0 -0.7071068
vn 1 0 0
vn -1 0 0
vn 0 0 -1
vn 0 0 1
vt -0.5625 0
vt -0.5625 1
vt -0.5 -2.707168E-16
vt -0.5 1
vt 0.5 -6.316725E-16
vt 0.5 1
vt 0.5625 0
vt 0.5625 1
vt -0.4375 1
vt -0.4375 0
vt 0.4375 -0.5
vt 0.4375 0.5
vt 0.5 -0.5625
vt 0.5 0.5625
vt 0.5625 -0.5
vt 0.5625 0.5
vt 0.4375 -0.45
vt 0.46 -0.4
vt 0.54 -0.4
vt 0.5625 -0.45
vt 0.5825 -0.4
vt 0.5825 -0.45
vt 0.4175 -0.4
vt 0.4175 -0.45
vt 0.4375 1
vt 0.4375 0
vt 0.54 0.4
vt 0.5625 0.45
vt 0.5825 0.4
vt 0.5825 0.45
vt 0.46 0.4
vt 0.4375 0.45
vt 0.4175 0.45
vt 0.4175 0.4
vt 0.5 0
vt 0.45 0.9499999
vt -0.45 0.9499999
vt -0.45 0.05
vt -0.45 7.049916E-18
vt -0.5 0
vt 0.45 7.049916E-18
vt -0.4375 0.05
vt -0.4375 0.9499999
vt -0.4375 7.049916E-18
vt 0.45 0.05
vt -0.5625 0.05
vt -0.5625 7.049916E-18
vt -0.5625 0.9499999
vt 0.5625 0.05
vt 0.4375 0.05
vt 0.5625 0.9499999
vt 0.4375 0.9499999
vt 0.5825 0.9499999
vt 0.5625 7.049916E-18
vt 0.5825 6.744012E-18
vt -0.5825 0.9499999
vt -0.5825 6.744012E-18
vt -0.5825 1.379393E-17
vt -0.5825 0.9
vt -0.54 1.394688E-17
vt -0.54 0.9
vt 0.54 1.394688E-17
vt 0.5825 0.9
vt 0.5825 1.379393E-17
vt 0.54 0.9
vt 0.46 1.394688E-17
vt 0.4175 1.409983E-17
vt 0.46 0.9
vt 0.4175 0.9
vt -0.46 0.9
vt -0.4175 1.409983E-17
vt -0.46 1.394688E-17
vt -0.4175 0.9
vt 0.4 1.379393E-17
vt 0.4 0.9
vt 0.45 6.744012E-18
vt -0.4 0.9
vt -0.4 1.379393E-17
vt -0.45 6.744012E-18
vt 0.4 1.409983E-17
vt -0.4 1.409983E-17
vt -0.4175 7.049916E-18
vt -0.4175 0.9499999
vt 0.4175 0.9499999
vt 0.4375 7.049916E-18
vt 0.4175 7.049916E-18
vt 0.065 0.17
vt 0.065 0.1
vt -0.065 0.17
vt -0.065 0.1
vt 0.313478 0.8134781
vt 0.313478 0.6483833
vt -0.313478 0.8134781
vt -0.313478 0.6483833
vt 0.4 1.394688E-17
vt -0.4 1.394688E-17
vt 0.46 -0.313478
vt 0.46 0.313478
vt 0.5 -0.313478
vt 0.5 0.313478
vt 0.54 -0.313478
vt 0.54 0.313478
vt 0.5 0.6483833
vt 0.46 0.6483833
vt 0.5 0.8134781
vt 0.46 0.8134781
vt 0.54 0.8134781
vt 0.54 0.6483833
vt -0.5 0.8134781
vt -0.46 0.6483833
vt -0.5 0.6483833
vt -0.46 0.8134781
vt -0.54 0.8134781
vt -0.54 0.6483833

usemtl stone (Instance)
usemap stone (Instance)
f 3/3/1 2/2/1 1/1/1
f 2/2/1 3/3/1 4/4/1
f 7/7/2 6/6/2 5/5/2
f 6/6/2 7/7/2 8/8/2
f 4/4/3 10/10/3 9/9/3
f 10/10/3 4/4/3 3/3/3
f 6/13/4 9/12/4 11/11/4
f 9/12/4 6/13/4 4/14/4
f 4/14/4 6/13/4 8/15/4
f 4/14/4 8/15/4 2/16/4
f 3/13/5 12/17/5 10/11/5
f 12/17/5 3/13/5 13/18/5
f 13/18/5 3/13/5 14/19/5
f 14/19/5 3/13/5 1/15/5
f 14/19/5 1/15/5 15/20/5
f 14/19/5 15/20/5 16/21/5
f 16/21/5 15/20/5 17/22/5
f 18/23/5 12/17/5 13/18/5
f 12/17/5 18/23/5 19/24/5
f 11/25/6 5/5/6 6/6/6
f 5/5/6 11/25/6 20/26/6
f 23/29/5 22/28/5 21/27/5
f 22/28/5 23/29/5 24/30/5
f 7/16/5 21/27/5 22/28/5
f 5/14/5 21/27/5 7/16/5
f 5/14/5 25/31/5 21/27/5
f 20/12/5 25/31/5 5/14/5
f 26/32/5 25/31/5 20/12/5
f 27/33/5 25/31/5 26/32/5
f 25/31/5 27/33/5 28/34/5
f 11/6/7 29/36/7 20/35/7
f 29/36/7 11/6/7 9/4/7
f 29/36/7 9/4/7 30/37/7
f 30/37/7 9/4/7 31/38/7
f 31/38/7 9/4/7 12/39/7
f 12/39/7 9/4/7 10/40/7
f 29/36/7 26/41/7 20/35/7
f 26/44/4 29/43/4 32/42/4
f 1/35/8 33/45/8 15/41/8
f 33/45/8 1/35/8 34/36/8
f 2/6/8 34/36/8 1/35/8
f 2/6/8 35/37/8 34/36/8
f 8/4/8 35/37/8 2/6/8
f 8/4/8 22/39/8 35/37/8
f 22/39/8 8/4/8 7/40/8
f 35/48/4 22/47/4 36/46/4

usemtl stone (Instance)
usemap stone (Instance)
f 35/51/9 32/50/9 36/49/9
f 32/50/9 35/51/9 29/52/9
f 36/49/9 37/53/9 35/51/9
f 22/54/9 37/53/9 36/49/9
f 37/53/9 22/54/9 24/55/9
f 36/46/10 32/42/10 35/48/10
f 29/43/10 35/48/10 32/42/10
f 35/20/4 30/32/4 29/17/4
f 30/32/4 35/20/4 34/28/4
f 37/22/4 34/28/4 35/20/4
f 34/28/4 37/22/4 38/30/4
f 29/32/5 30/17/5 35/28/5
f 34/20/5 35/28/5 30/17/5
f 30/43/10 33/46/10 31/42/10
f 33/46/10 30/43/10 34/48/10
f 38/56/10 33/46/10 34/48/10
f 38/56/10 15/47/10 33/46/10
f 15/47/10 38/56/10 17/57/10
f 31/50/9 33/49/9 30/52/9
f 34/51/9 30/52/9 33/49/9
f 21/60/10 39/59/10 23/58/10
f 39/59/10 21/60/10 40/61/10
f 23/64/9 39/63/9 21/62/9
f 40/65/9 21/62/9 39/63/9
f 41/68/9 18/67/9 13/66/9
f 18/67/9 41/68/9 42/69/9
f 13/72/10 18/71/10 41/70/10
f 42/73/10 41/70/10 18/71/10
f 41/18/5 43/34/5 42/23/5
f 43/34/5 41/18/5 44/31/5
f 42/34/4 43/23/4 41/31/4
f 44/18/4 41/31/4 43/23/4
f 17/76/8 45/75/8 16/74/8
f 38/36/8 45/75/8 17/76/8
f 38/36/8 39/77/8 45/75/8
f 37/37/8 39/77/8 38/36/8
f 37/37/8 23/78/8 39/77/8
f 23/78/8 37/37/8 24/79/8
f 19/41/8 42/75/8 18/80/8
f 46/36/8 42/75/8 19/41/8
f 46/36/8 43/77/8 42/75/8
f 47/37/8 43/77/8 46/36/8
f 47/37/8 28/81/8 43/77/8
f 28/81/8 47/37/8 27/39/8
f 18/81/7 42/77/7 19/39/7
f 19/39/7 42/77/7 46/37/7
f 42/77/7 43/75/7 46/37/7
f 46/37/7 43/75/7 47/36/7
f 43/75/7 28/80/7 47/36/7
f 27/41/7 47/36/7 28/80/7
f 47/83/10 26/44/10 27/82/10
f 26/44/10 47/83/10 32/42/10
f 32/42/10 47/83/10 29/43/10
f 27/86/9 26/85/9 47/84/9
f 32/50/9 47/84/9 26/85/9
f 29/52/9 47/84/9 32/50/9
f 31/50/9 19/86/9 12/85/9
f 19/86/9 31/50/9 46/84/9
f 46/84/9 31/50/9 30/52/9
f 12/44/10 19/82/10 31/42/10
f 46/83/10 31/42/10 19/82/10
f 30/43/10 31/42/10 46/83/10
f 30/17/5 47/33/5 46/24/5
f 47/33/5 30/17/5 29/32/5
f 46/33/4 47/24/4 30/32/4
f 29/17/4 30/32/4 47/24/4
f 28/71/10 44/70/10 25/72/10
f 44/70/10 28/71/10 43/73/10
f 25/66/9 44/68/9 28/67/9
f 43/69/9 28/67/9 44/68/9
f 45/21/5 40/27/5 48/19/5
f 40/27/5 45/21/5 39/29/5
f 48/27/4 40/19/4 45/29/4
f 39/21/4 45/29/4 40/19/4
f 45/63/9 14/62/9 16/64/9
f 14/62/9 45/63/9 48/65/9
f 16/58/10 14/60/10 45/59/10
f 48/61/10 45/59/10 14/60/10
f 51/89/7 50/88/7 49/87/7
f 50/88/7 51/89/7 52/90/7
f 49/89/8 50/90/8 51/87/8
f 52/88/8 51/87/8 50/90/8
f 55/89/7 54/88/7 53/87/7
f 54/88/7 55/89/7 56/90/7
f 53/89/8 54/90/8 55/87/8
f 56/88/8 55/87/8 54/90/8

usemtl stone (Instance)
usemap stone (Instance)
f 59/93/7 58/92/7 57/91/7
f 58/92/7 59/93/7 60/94/7
f 57/93/8 58/94/8 59/91/8
f 60/92/8 59/91/8 58/94/8

usemtl stone (Instance)
usemap stone (Instance)
f 62/94/7 53/87/7 61/92/7
f 53/87/7 62/94/7 55/89/7
f 55/89/7 62/94/7 56/90/7
f 54/88/7 61/92/7 53/87/7
f 54/88/7 25/95/7 61/92/7
f 25/95/7 54/88/7 13/96/7
f 13/96/7 54/88/7 56/90/7
f 13/96/7 56/90/7 62/94/7
f 61/92/7 25/95/7 63/91/7
f 44/75/7 63/91/7 25/95/7
f 63/91/7 44/75/7 41/77/7
f 13/96/7 62/94/7 41/77/7
f 63/91/7 41/77/7 64/93/7
f 64/93/7 41/77/7 62/94/7
f 61/94/8 53/89/8 62/92/8
f 55/87/8 62/92/8 53/89/8
f 56/88/8 62/92/8 55/87/8
f 53/89/8 61/94/8 54/90/8
f 61/94/8 25/96/8 54/90/8
f 13/95/8 54/90/8 25/96/8
f 56/88/8 54/90/8 13/95/8
f 62/92/8 56/88/8 13/95/8
f 63/93/8 25/96/8 61/94/8
f 25/96/8 63/93/8 44/77/8
f 41/75/8 44/77/8 63/93/8
f 41/75/8 62/92/8 13/95/8
f 64/91/8 41/75/8 63/93/8
f 62/92/8 41/75/8 64/91/8
f 14/19/5 25/31/5 13/18/5
f 25/31/5 14/19/5 21/27/5
f 13/31/4 25/18/4 14/27/4
f 21/19/4 14/27/4 25/18/4
f 58/99/4 62/98/4 61/97/4
f 62/98/4 58/99/4 60/100/4
f 65/101/4 60/100/4 58/99/4
f 60/100/4 65/101/4 66/102/4
f 61/98/5 62/97/5 58/100/5
f 60/99/5 58/100/5 62/97/5
f 58/100/5 60/99/5 65/102/5
f 66/101/5 65/102/5 60/99/5
f 59/105/9 62/104/9 60/103/9
f 62/104/9 59/105/9 64/106/9
f 60/103/9 67/107/9 59/105/9
f 67/107/9 60/103/9 66/108/9
f 60/111/10 62/110/10 59/109/10
f 64/112/10 59/109/10 62/110/10
f 59/109/10 67/113/10 60/111/10
f 66/114/10 60/111/10 67/113/10
f 59/99/5 63/98/5 64/97/5
f 63/98/5 59/99/5 57/100/5
f 67/101/5 57/100/5 59/99/5
f 57/100/5 67/101/5 68/102/5
f 64/98/4 63/97/4 59/100/4
f 57/99/4 59/100/4 63/97/4
f 59/100/4 57/99/4 67/102/4
f 68/101/4 67/102/4 57/99/4
f 63/112/10 58/111/10 61/110/10
f 58/111/10 63/112/10 57/109/10
f 57/109/10 65/114/10 58/111/10
f 65/114/10 57/109/10 68/113/10
f 61/104/9 58/103/9 63/106/9
f 57/105/9 63/106/9 58/103/9
f 58/103/9 65/108/9 57/105/9
f 68/107/9 57/105/9 65/108/9
f 21/96/8 65/94/8 40/77/8
f 65/94/8 21/96/8 50/90/8
f 50/90/8 21/96/8 14/95/8
f 50/90/8 14/95/8 52/88/8
f 52/88/8 14/95/8 51/87/8
f 51/87/8 14/95/8 66/92/8
f 66/92/8 14/95/8 67/91/8
f 68/93/8 40/77/8 65/94/8
f 40/77/8 68/93/8 48/75/8
f 48/75/8 68/93/8 67/91/8
f 48/75/8 67/91/8 14/95/8
f 65/94/8 49/89/8 66/92/8
f 49/89/8 65/94/8 50/90/8
f 66/92/8 49/89/8 51/87/8
f 40/75/7 65/92/7 21/95/7
f 50/88/7 21/95/7 65/92/7
f 14/96/7 21/95/7 50/88/7
f 52/90/7 14/96/7 50/88/7
f 51/89/7 14/96/7 52/90/7
f 66/94/7 14/96/7 51/89/7
f 67/93/7 14/96/7 66/94/7
f 65/92/7 40/75/7 68/91/7
f 48/77/7 68/91/7 40/75/7
f 67/93/7 68/91/7 48/77/7
f 14/96/7 67/93/7 48/77/7
f 66/94/7 49/87/7 65/92/7
f 50/88/7 65/92/7 49/87/7
f 51/89/7 49/87/7 66/94/7
f 48/65/9 13/66/9 14/62/9
f 13/66/9 48/65/9 41/68/9
f 14/60/10 13/72/10 48/61/10
f 41/70/10 48/61/10 13/72/10
f 48/19/5 44/31/5 41/18/5
f 44/31/5 48/19/5 40/27/5
f 41/31/4 44/18/4 48/27/4
f 40/19/4 48/27/4 44/18/4
f 44/70/10 21/60/10 25/72/10
f 21/60/10 44/70/10 40/61/10
f 25/66/9 21/62/9 44/68/9
f 40/65/9 44/68/9 21/62/9
