# Made using Asset Forge (www.assetforge.io) version 1.3 

mtllib crate.mtl 

v 0.5 0 0.5
v 0.5 0 0.4
v -2.5 0 0.5
v -2.5 0 0.4
v -2.5 0.1 0.4
v -2.5 0.1 0.5
v 0.5 0.1 0.4
v 0.5 0.1 0.5
vn 0 -0.1 0
vn -3 0 0
vn 0 0 -0.1
vn 0 0 0.1
vn 3 0 0
vn 0 0.1 0
vt -0.5 -0.5
vt -0.5 -0.4
vt 2.5 -0.5
vt 2.5 -0.4
vt 0.4 0
vt 0.4 0.1
vt 0.5 0
vt 0.5 0.1
vt 2.5 0
vt -0.5 0
vt 2.5 0.1
vt -0.5 0.1
vt -2.5 0
vt -2.5 0.1
vt -0.4 0.1
vt -0.4 0
vt -0.5 0.4
vt -0.5 0.5
vt 2.5 0.4
vt 2.5 0.5

usemtl _defaultMat (Instance)
usemap _defaultMat (Instance)
f 3/3/1 2/2/1 1/1/1
f 2/2/1 3/3/1 4/4/1
f 3/7/2 5/6/2 4/5/2
f 5/6/2 3/7/2 6/8/2
f 5/11/3 2/10/3 4/9/3
f 2/10/3 5/11/3 7/12/3
f 8/8/4 3/13/4 1/7/4
f 3/13/4 8/8/4 6/14/4
f 8/12/5 2/16/5 7/15/5
f 2/16/5 8/12/5 1/10/5
f 5/19/6 8/18/6 7/17/6
f 8/18/6 5/19/6 6/20/6
v 0.5 0 -2.6
v -2.5 0 -2.6
v -2.5 3 -2.6
v -2.5 3 0.4
v 0.5 3 -2.6
v 0.5 3 0.4
vn 0 -3 0
vn 0 0 -3
vn 0 0 3
vn 0 3 0
vt -0.5 2.6
vt 2.5 2.6
vt -2.6 0
vt -2.6 3
vt 0.4 3
vt 2.5 3
vt -0.5 3
vt 0.5 3
vt -2.5 3
vt 2.6 3
vt 2.6 0
vt -0.4 3
vt -0.5 -2.6
vt 2.5 -2.6

usemtl _defaultMat (Instance) (Instance)
usemap _defaultMat (Instance) (Instance)
f 4/4/7 9/21/7 2/2/7
f 9/21/7 4/4/7 10/22/7
f 4/5/2 11/24/2 10/23/2
f 11/24/2 4/5/2 12/25/2
f 11/26/8 9/10/8 10/9/8
f 9/10/8 11/26/8 13/27/8
f 14/28/9 4/13/9 2/7/9
f 4/13/9 14/28/9 12/29/9
f 14/32/5 9/31/5 13/30/5
f 9/31/5 14/32/5 2/16/5
f 11/34/10 14/17/10 13/33/10
f 14/17/10 11/34/10 12/19/10
v 0.3999999 0.0999999 0.5
v 0.3999999 0.0999999 0.4
v 0.4000001 2.9 0.5
v 0.4000001 2.9 0.4
v 0.5000001 2.9 0.4
v 0.5000001 2.9 0.5
v 0.4999999 0.0999999 0.4
v 0.4999999 0.0999999 0.5
vn -0.1 1.490116E-08 0
vn 2.384186E-07 2.8 0
vn -2.384186E-07 -2.8 0
vn 0.1 -1.490116E-08 0
vt 0.5 0.0999999
vt 0.4 0.0999999
vt 0.5 2.9
vt 0.4 2.9
vt -0.4000002 0.4
vt -0.5000002 0.4
vt -0.4000002 0.5
vt -0.5000002 0.5
vt -0.4000002 2.9
vt -0.3999998 0.0999999
vt -0.5000002 2.9
vt -0.4999998 0.09999989
vt 0.3999998 0.0999999
vt 0.4000002 2.9
vt 0.4999998 0.09999989
vt 0.5000002 2.9
vt -0.4999998 -0.4
vt -0.3999998 -0.4
vt -0.4999998 -0.5
vt -0.3999998 -0.5
vt -0.4 0.09999989
vt -0.5 0.09999989
vt -0.4 2.9
vt -0.5 2.9

usemtl _defaultMat (Instance) (Instance)
usemap _defaultMat (Instance) (Instance)
f 17/37/11 16/36/11 15/35/11
f 16/36/11 17/37/11 18/38/11
f 17/41/12 19/40/12 18/39/12
f 19/40/12 17/41/12 20/42/12
f 19/45/3 16/44/3 18/43/3
f 16/44/3 19/45/3 21/46/3
f 22/49/4 17/48/4 15/47/4
f 17/48/4 22/49/4 20/50/4
f 22/53/13 16/52/13 21/51/13
f 16/52/13 22/53/13 15/54/13
f 19/57/14 22/56/14 21/55/14
f 22/56/14 19/57/14 20/58/14
v -2.5 0.0999999 0.5
v -2.5 0.0999999 0.4
v -2.5 2.9 0.5
v -2.5 2.9 0.4
v -2.4 2.9 0.4
v -2.4 2.9 0.5
v -2.4 0.0999999 0.4
v -2.4 0.0999999 0.5
vt 2.5 0.4
vt 2.4 0.4
vt 2.5 0.5
vt 2.4 0.5
vt 2.5 2.9
vt 2.5 0.0999999
vt 2.4 2.9
vt 2.4 0.09999989
vt -2.5 0.0999999
vt -2.5 2.9
vt -2.4 0.09999989
vt -2.4 2.9
vt 2.4 -0.4
vt 2.5 -0.4
vt 2.4 -0.5
vt 2.5 -0.5

usemtl _defaultMat (Instance) (Instance) (Instance)
usemap _defaultMat (Instance) (Instance) (Instance)
f 25/37/11 24/36/11 23/35/11
f 24/36/11 25/37/11 26/38/11
f 25/61/12 27/60/12 26/59/12
f 27/60/12 25/61/12 28/62/12
f 27/65/3 24/64/3 26/63/3
f 24/64/3 27/65/3 29/66/3
f 30/69/4 25/68/4 23/67/4
f 25/68/4 30/69/4 28/70/4
f 30/73/13 24/72/13 29/71/13
f 24/72/13 30/73/13 23/74/13
f 27/57/14 30/56/14 29/55/14
f 30/56/14 27/57/14 28/58/14
v 0.5 2.9 0.5
v 0.5 2.9 0.4
v -2.5 3 0.5
v 0.5 3 0.5
vt 2.5 2.9
vt -2.5 2.9

usemtl _defaultMat (Instance) (Instance)
usemap _defaultMat (Instance) (Instance)
f 25/3/1 32/2/1 31/1/1
f 32/2/1 25/3/1 26/4/1
f 25/37/2 12/25/2 26/38/2
f 12/25/2 25/37/2 33/28/2
f 12/26/3 32/58/3 26/75/3
f 32/58/3 12/26/3 14/27/3
f 34/28/4 25/76/4 31/37/4
f 25/76/4 34/28/4 33/29/4
f 34/27/5 32/57/5 14/32/5
f 32/57/5 34/27/5 31/58/5
f 12/19/6 34/18/6 14/17/6
f 34/18/6 12/19/6 33/20/6
v 0.2581453 0.1918502 0.5000018
v 0.2581453 0.1918502 0.4000012
v -2.358145 2.80815 0.4999987
v -2.358145 2.80815 0.3999982
v -2.287434 2.878861 0.3999982
v -2.287434 2.878861 0.4999988
v 0.3288566 0.2625612 0.4000013
v 0.3288565 0.2625612 0.5000018
vn -0.07071123 -0.07071099 -3.434456E-08
vn -2.616291 2.6163 -3.064967E-06
vn 8.286011E-08 -3.428979E-08 -0.1000006
vn -8.286011E-08 3.428979E-08 0.1000006
vn 2.616291 -2.6163 3.064967E-06
vn 0.07071123 0.07071099 3.434456E-08
vt 0.5000018 0.1918502
vt 0.4000012 0.1918502
vt 0.4999987 2.80815
vt 0.3999982 2.80815
vt 2.358145 0.3999982
vt 2.287434 0.3999982
vt 2.358145 0.4999987
vt 2.287434 0.4999988
vt 2.358145 2.80815
vt -0.2581452 0.1918502
vt 2.287434 2.878861
vt -0.3288565 0.2625611
vt 0.2581452 0.1918502
vt -2.358145 2.80815
vt 0.3288564 0.2625612
vt -2.287434 2.878861
vt -0.3288565 -0.4000013
vt -0.2581452 -0.4000012
vt -0.3288564 -0.5000018
vt -0.2581452 -0.5000018
vt -0.4000013 0.2625611
vt -0.5000018 0.2625612
vt -0.3999982 2.878861
vt -0.4999988 2.878861

usemtl _defaultMat (Instance) (Instance) (Instance)
usemap _defaultMat (Instance) (Instance) (Instance)
f 37/79/15 36/78/15 35/77/15
f 36/78/15 37/79/15 38/80/15
f 37/83/16 39/82/16 38/81/16
f 39/82/16 37/83/16 40/84/16
f 39/87/17 36/86/17 38/85/17
f 36/86/17 39/87/17 41/88/17
f 42/91/18 37/90/18 35/89/18
f 37/90/18 42/91/18 40/92/18
f 42/95/19 36/94/19 41/93/19
f 36/94/19 42/95/19 35/96/19
f 39/99/20 42/98/20 41/97/20
f 42/98/20 39/99/20 40/100/20
v 0.5 0 -2.7
v -2.5 0 -2.7
v -2.5 0.1 -2.7
v -2.5 0.1 -2.6
v 0.5 0.1 -2.7
v 0.5 0.1 -2.6
vt -0.5 2.7
vt 2.5 2.7
vt -2.7 0
vt -2.7 0.1
vt -2.6 0.1
vt 2.7 0.1
vt 2.7 0
vt 2.6 0.1
vt -0.5 -2.7
vt 2.5 -2.7

usemtl _defaultMat (Instance) (Instance)
usemap _defaultMat (Instance) (Instance)
f 10/22/1 43/101/1 9/21/1
f 43/101/1 10/22/1 44/102/1
f 10/23/2 45/104/2 44/103/2
f 45/104/2 10/23/2 46/105/2
f 45/11/3 43/10/3 44/9/3
f 43/10/3 45/11/3 47/12/3
f 48/8/4 10/13/4 9/7/4
f 10/13/4 48/8/4 46/14/4
f 48/108/5 43/107/5 47/106/5
f 43/107/5 48/108/5 9/31/5
f 45/110/6 48/33/6 47/109/6
f 48/33/6 45/110/6 46/34/6
v 0.3999999 0.0999999 -2.6
v 0.3999999 0.0999999 -2.7
v 0.4000001 2.9 -2.6
v 0.4000001 2.9 -2.7
v 0.5000001 2.9 -2.7
v 0.5000001 2.9 -2.6
v 0.4999999 0.0999999 -2.7
v 0.4999999 0.0999999 -2.6
vt -2.6 0.0999999
vt -2.7 0.0999999
vt -2.6 2.9
vt -2.7 2.9
vt -0.4000002 -2.7
vt -0.5000002 -2.7
vt -0.4000002 -2.6
vt -0.5000002 -2.6
vt -0.4999998 2.7
vt -0.3999998 2.7
vt -0.4999998 2.6
vt -0.3999998 2.6
vt 2.7 0.09999989
vt 2.6 0.09999989
vt 2.7 2.9
vt 2.6 2.9

usemtl _defaultMat (Instance) (Instance) (Instance)
usemap _defaultMat (Instance) (Instance) (Instance)
f 51/113/11 50/112/11 49/111/11
f 50/112/11 51/113/11 52/114/11
f 51/117/12 53/116/12 52/115/12
f 53/116/12 51/117/12 54/118/12
f 53/45/3 50/44/3 52/43/3
f 50/44/3 53/45/3 55/46/3
f 56/49/4 51/48/4 49/47/4
f 51/48/4 56/49/4 54/50/4
f 56/121/13 50/120/13 55/119/13
f 50/120/13 56/121/13 49/122/13
f 53/125/14 56/124/14 55/123/14
f 56/124/14 53/125/14 54/126/14
v 0.2581453 0.1918502 -2.599998
v 0.2581453 0.1918502 -2.699999
v -2.358145 2.80815 -2.600001
v -2.358145 2.80815 -2.700002
v -2.287434 2.878861 -2.700002
v -2.287434 2.878861 -2.600001
v 0.3288566 0.2625612 -2.699999
v 0.3288565 0.2625612 -2.599998
vt -2.599998 0.1918502
vt -2.699999 0.1918502
vt -2.600001 2.80815
vt -2.700002 2.80815
vt 2.358145 -2.700002
vt 2.287434 -2.700002
vt 2.358145 -2.600001
vt 2.287434 -2.600001
vt -0.3288565 2.699999
vt -0.2581452 2.699999
vt -0.3288564 2.599998
vt -0.2581452 2.599998
vt 2.699999 0.2625611
vt 2.599998 0.2625612
vt 2.700002 2.878861
vt 2.600001 2.878861

usemtl _defaultMat (Instance) (Instance) (Instance) (Instance)
usemap _defaultMat (Instance) (Instance) (Instance) (Instance)
f 59/129/15 58/128/15 57/127/15
f 58/128/15 59/129/15 60/130/15
f 59/133/16 61/132/16 60/131/16
f 61/132/16 59/133/16 62/134/16
f 61/87/17 58/86/17 60/85/17
f 58/86/17 61/87/17 63/88/17
f 64/91/18 59/90/18 57/89/18
f 59/90/18 64/91/18 62/92/18
f 64/137/19 58/136/19 63/135/19
f 58/136/19 64/137/19 57/138/19
f 61/141/20 64/140/20 63/139/20
f 64/140/20 61/141/20 62/142/20
v 0.5 2.9 -2.6
v 0.5 2.9 -2.7
v -2.5 2.9 -2.6
v -2.5 2.9 -2.7
v -2.5 3 -2.7
v 0.5 3 -2.7
vt -2.7 3
vt 2.7 3

usemtl _defaultMat (Instance) (Instance) (Instance)
usemap _defaultMat (Instance) (Instance) (Instance)
f 67/22/1 66/101/1 65/21/1
f 66/101/1 67/22/1 68/102/1
f 67/113/2 69/143/2 68/114/2
f 69/143/2 67/113/2 11/24/2
f 69/26/3 66/58/3 68/75/3
f 66/58/3 69/26/3 70/27/3
f 13/28/4 67/76/4 65/37/4
f 67/76/4 13/28/4 11/29/4
f 13/30/5 66/125/5 70/144/5
f 66/125/5 13/30/5 65/126/5
f 69/110/6 13/33/6 70/109/6
f 13/33/6 69/110/6 11/34/6
v -2.5 0.0999999 -2.6
v -2.5 0.0999999 -2.7
v -2.4 2.9 -2.7
v -2.4 2.9 -2.6
v -2.4 0.0999999 -2.7
v -2.4 0.0999999 -2.6
vt 2.5 -2.7
vt 2.4 -2.7
vt 2.5 -2.6
vt 2.4 -2.6
vt 2.4 2.7
vt 2.5 2.7
vt 2.4 2.6
vt 2.5 2.6

usemtl _defaultMat (Instance) (Instance) (Instance) (Instance)
usemap _defaultMat (Instance) (Instance) (Instance) (Instance)
f 67/113/11 72/112/11 71/111/11
f 72/112/11 67/113/11 68/114/11
f 67/147/12 73/146/12 68/145/12
f 73/146/12 67/147/12 74/148/12
f 73/65/3 72/64/3 68/63/3
f 72/64/3 73/65/3 75/66/3
f 76/69/4 67/68/4 71/67/4
f 67/68/4 76/69/4 74/70/4
f 76/151/13 72/150/13 75/149/13
f 72/150/13 76/151/13 71/152/13
f 73/125/14 76/124/14 75/123/14
f 76/124/14 73/125/14 74/126/14
v -2.5 2.9 0.4999998
v -2.5 2.9 -2.7
v -2.6 2.9 0.4999998
v -2.6 2.9 -2.7
v -2.6 3 -2.7
v -2.6 3 0.4999998
v -2.5 3 -2.7
v -2.5 3 0.4999998
vn -0.1 0 0
vn 0 0 -3.2
vn 0 0 3.2
vn 0.1 0 0
vt 2.5 -0.4999998
vt 2.5 2.7
vt 2.6 -0.4999998
vt 2.6 2.7
vt -2.7 2.9
vt -2.7 3
vt 0.4999998 2.9
vt 0.4999998 3
vt 2.7 3
vt 2.7 2.9
vt -0.4999998 3
vt -0.4999998 2.9
vt 2.5 -2.7
vt 2.5 0.4999998
vt 2.6 -2.7
vt 2.6 0.4999998

usemtl _defaultMat (Instance) (Instance)
usemap _defaultMat (Instance) (Instance)
f 79/155/1 78/154/1 77/153/1
f 78/154/1 79/155/1 80/156/1
f 79/159/21 81/158/21 80/157/21
f 81/158/21 79/159/21 82/160/21
f 81/30/22 78/75/22 80/126/22
f 78/75/22 81/30/22 83/26/22
f 84/29/23 79/113/23 77/76/23
f 79/113/23 84/29/23 82/24/23
f 84/163/24 78/162/24 83/161/24
f 78/162/24 84/163/24 77/164/24
f 81/167/6 84/166/6 83/165/6
f 84/166/6 81/167/6 82/168/6
v -2.5 0 0.4999998
v -2.5 0 -2.7
v -2.6 0 0.4999998
v -2.6 0 -2.7
v -2.6 0.1 -2.7
v -2.6 0.1 0.4999998
v -2.5 0.1 -2.7
v -2.5 0.1 0.4999998
vt -2.7 0
vt -2.7 0.1
vt 0.4999998 0
vt 0.4999998 0.1
vt 2.7 0.1
vt 2.7 0
vt -0.4999998 0.1
vt -0.4999998 0

usemtl _defaultMat (Instance) (Instance) (Instance)
usemap _defaultMat (Instance) (Instance) (Instance)
f 87/155/1 86/154/1 85/153/1
f 86/154/1 87/155/1 88/156/1
f 87/171/21 89/170/21 88/169/21
f 89/170/21 87/171/21 90/172/21
f 89/108/22 86/9/22 88/31/22
f 86/9/22 89/108/22 91/11/22
f 92/14/23 87/23/23 85/13/23
f 87/23/23 92/14/23 90/105/23
f 92/175/24 86/174/24 91/173/24
f 86/174/24 92/175/24 85/176/24
f 89/167/6 92/166/6 91/165/6
f 92/166/6 89/167/6 90/168/6
v -2.5 0.0999999 -2.7
v -2.5 2.9 -2.7
v -2.6 0.0999999 -2.7
v -2.6 2.9 -2.7
v -2.6 2.9 -2.6
v -2.6 0.0999999 -2.6
v -2.5 2.9 -2.6
v -2.5 0.0999999 -2.6
vn 0 1.490116E-08 -0.1
vn 0 2.8 2.384186E-07
vn 0 -2.8 -2.384186E-07
vn 0 -1.490116E-08 0.1
vt 2.5 0.0999999
vt 2.6 0.0999999
vt -2.6 2.9
vt -2.700001 0.0999999
vt -2.6 0.09999989
vt 2.6 -2.6
vt 2.5 -2.6
vt 2.5 2.700001
vt 2.6 2.700001
vt 2.5 2.6
vt 2.6 2.6
vt 2.6 2.9
vt 2.6 0.09999989
vt 2.700001 0.0999999
vt -2.5 0.09999989
vt -2.6 0.09999989

usemtl _defaultMat (Instance) (Instance) (Instance) (Instance)
usemap _defaultMat (Instance) (Instance) (Instance) (Instance)
f 95/178/25 94/75/25 93/177/25
f 94/75/25 95/178/25 96/126/25
f 95/180/21 97/179/21 96/157/21
f 97/179/21 95/180/21 98/181/21
f 97/182/26 94/165/26 96/167/26
f 94/165/26 97/182/26 99/183/26
f 100/186/27 95/185/27 93/184/27
f 95/185/27 100/186/27 98/187/27
f 100/189/24 94/162/24 99/188/24
f 94/162/24 100/189/24 93/190/24
f 97/113/28 100/191/28 99/76/28
f 100/191/28 97/113/28 98/192/28
v -2.5 0.0999999 0.3999995
v -2.5 2.9 0.3999997
v -2.6 0.0999999 0.3999995
v -2.6 2.9 0.3999997
v -2.6 0.0999999 0.4999995
v -2.5 0.0999999 0.4999995
vt 0.3999998 2.9
vt 0.4999998 2.9
vt 0.3999994 0.0999999
vt 0.4999995 0.09999989
vt 2.6 0.3999998
vt 2.5 0.3999998
vt 2.6 0.4999998
vt 2.5 0.4999998
vt 2.5 -0.3999994
vt 2.6 -0.3999994
vt 2.5 -0.4999995
vt 2.6 -0.4999995
vt -0.4999998 2.9
vt -0.3999998 2.9
vt -0.4999995 0.09999989
vt -0.3999994 0.0999999

usemtl _defaultMat (Instance) (Instance) (Instance) (Instance) (Instance)
usemap _defaultMat (Instance) (Instance) (Instance) (Instance) (Instance)
f 103/178/25 102/75/25 101/177/25
f 102/75/25 103/178/25 104/126/25
f 103/195/21 79/194/21 104/193/21
f 79/194/21 103/195/21 105/196/21
f 79/199/26 102/198/26 104/197/26
f 102/198/26 79/199/26 77/200/26
f 106/203/27 103/202/27 101/201/27
f 103/202/27 106/203/27 105/204/27
f 106/207/24 102/206/24 77/205/24
f 102/206/24 106/207/24 101/208/24
f 79/113/28 106/191/28 77/76/28
f 106/191/28 79/113/28 105/192/28
v -2.500001 2.80815 -2.408146
v -2.499999 0.1918501 0.2081448
v -2.600001 2.80815 -2.408146
v -2.599999 0.1918501 0.2081448
v -2.599999 0.1211395 0.1374339
v -2.600001 2.737439 -2.478857
v -2.499999 0.1211395 0.1374339
v -2.500001 2.737439 -2.478857
vn 7.417201E-08 0.07071055 0.0707108
vn -0.1 2.167374E-08 8.322121E-08
vn 1.610259E-06 -2.6163 2.616291
vn -1.610259E-06 2.6163 -2.616291
vn 0.1 -2.167374E-08 -8.322121E-08
vn -7.417201E-08 -0.07071055 -0.0707108
vt -2.500001 2.80815
vt -2.499999 0.1918501
vt -2.600001 2.80815
vt -2.599999 0.1918501
vt 0.2081448 0.1918501
vt 0.137434 0.1211395
vt -2.408146 2.80815
vt -2.478857 2.737439
vt 2.599999 -0.2081448
vt 2.499999 -0.2081447
vt 2.599999 -0.137434
vt 2.499999 -0.1374339
vt 2.500001 -2.408146
vt 2.600001 -2.408146
vt 2.500001 -2.478857
vt 2.600001 -2.478857
vt -0.1374339 0.1211395
vt -0.2081447 0.1918501
vt 2.478857 2.737439
vt 2.408146 2.80815
vt 2.499999 0.1211395
vt 2.500001 2.737439
vt 2.599999 0.1211395
vt 2.600001 2.737439

usemtl _defaultMat (Instance) (Instance) (Instance) (Instance) (Instance) (Instance)
usemap _defaultMat (Instance) (Instance) (Instance) (Instance) (Instance) (Instance)
f 109/211/29 108/210/29 107/209/29
f 108/210/29 109/211/29 110/212/29
f 109/215/30 111/214/30 110/213/30
f 111/214/30 109/215/30 112/216/30
f 111/219/31 108/218/31 110/217/31
f 108/218/31 111/219/31 113/220/31
f 114/223/32 109/222/32 107/221/32
f 109/222/32 114/223/32 112/224/32
f 114/227/33 108/226/33 113/225/33
f 108/226/33 114/227/33 107/228/33
f 111/231/34 114/230/34 113/229/34
f 114/230/34 111/231/34 112/232/34
v 0.6 2.9 0.4999998
v 0.6 2.9 -2.7
v 0.5 2.9 0.4999998
v 0.5 2.9 -2.7
v 0.5 3 -2.7
v 0.5 3 0.4999998
v 0.6 3 -2.7
v 0.6 3 0.4999998
vt -0.6 -0.4999998
vt -0.6 2.7
vt -0.5 -0.4999998
vt -0.5 2.7
vt -0.6 2.9
vt -0.6 3
vt 0.6 2.9
vt 0.6 3
vt -0.6 -2.7
vt -0.6 0.4999998
vt -0.5 -2.7
vt -0.5 0.4999998

usemtl _defaultMat (Instance) (Instance) (Instance)
usemap _defaultMat (Instance) (Instance) (Instance)
f 117/235/1 116/234/1 115/233/1
f 116/234/1 117/235/1 118/236/1
f 117/159/21 119/158/21 118/157/21
f 119/158/21 117/159/21 120/160/21
f 119/27/22 116/237/22 118/58/22
f 116/237/22 119/27/22 121/238/22
f 122/240/23 117/37/23 115/239/23
f 117/37/23 122/240/23 120/28/23
f 122/163/24 116/162/24 121/161/24
f 116/162/24 122/163/24 115/164/24
f 119/243/6 122/242/6 121/241/6
f 122/242/6 119/243/6 120/244/6
v 0.6 0.0999999 0.3999995
v 0.6 2.9 0.3999997
v 0.5 0.0999999 0.3999995
v 0.5 2.9 0.3999997
v 0.5 0.0999999 0.4999995
v 0.6 0.0999999 0.4999995
vt -0.6 0.0999999
vt -0.5 0.0999999
vt -0.5 0.3999998
vt -0.6 0.3999998
vt -0.5 0.4999998
vt -0.6 0.4999998
vt -0.6 -0.3999994
vt -0.5 -0.3999994
vt -0.6 -0.4999995
vt -0.5 -0.4999995
vt 0.6 0.09999989
vt 0.5 0.09999989

usemtl _defaultMat (Instance) (Instance) (Instance) (Instance) (Instance) (Instance)
usemap _defaultMat (Instance) (Instance) (Instance) (Instance) (Instance) (Instance)
f 125/246/25 124/237/25 123/245/25
f 124/237/25 125/246/25 126/58/25
f 125/195/21 117/194/21 126/193/21
f 117/194/21 125/195/21 127/196/21
f 117/249/26 124/248/26 126/247/26
f 124/248/26 117/249/26 115/250/26
f 128/253/27 125/252/27 123/251/27
f 125/252/27 128/253/27 127/254/27
f 128/207/24 124/206/24 115/205/24
f 124/206/24 128/207/24 123/208/24
f 117/37/28 128/255/28 115/239/28
f 128/255/28 117/37/28 127/256/28
v 0.5999992 2.80815 -2.408146
v 0.6000008 0.1918501 0.2081448
v 0.4999992 2.80815 -2.408146
v 0.5000008 0.1918501 0.2081448
v 0.5000007 0.1211395 0.1374339
v 0.4999991 2.737439 -2.478857
v 0.6000007 0.1211395 0.1374339
v 0.5999991 2.737439 -2.478857
vt 0.5999992 2.80815
vt 0.6000008 0.1918501
vt 0.4999992 2.80815
vt 0.5000008 0.1918501
vt -0.5000008 -0.2081448
vt -0.6000008 -0.2081447
vt -0.5000007 -0.137434
vt -0.6000007 -0.1374339
vt -0.5999992 -2.408146
vt -0.4999992 -2.408146
vt -0.5999991 -2.478857
vt -0.4999991 -2.478857
vt -0.6000007 0.1211395
vt -0.5999991 2.737439
vt -0.5000007 0.1211395
vt -0.4999991 2.737439

usemtl _defaultMat (Instance) (Instance) (Instance) (Instance) (Instance) (Instance) (Instance)
usemap _defaultMat (Instance) (Instance) (Instance) (Instance) (Instance) (Instance) (Instance)
f 131/259/29 130/258/29 129/257/29
f 130/258/29 131/259/29 132/260/29
f 131/215/30 133/214/30 132/213/30
f 133/214/30 131/215/30 134/216/30
f 133/263/31 130/262/31 132/261/31
f 130/262/31 133/263/31 135/264/31
f 136/267/32 131/266/32 129/265/32
f 131/266/32 136/267/32 134/268/32
f 136/227/33 130/226/33 135/225/33
f 130/226/33 136/227/33 129/228/33
f 133/271/34 136/270/34 135/269/34
f 136/270/34 133/271/34 134/272/34
v 0.6 0 0.4999998
v 0.6 0 -2.7
v 0.5 0 0.4999998
v 0.5 0 -2.7
v 0.5 0.1 -2.7
v 0.5 0.1 0.4999998
v 0.6 0.1 -2.7
v 0.6 0.1 0.4999998
vt -0.6 0
vt -0.6 0.1
vt 0.6 0
vt 0.6 0.1

usemtl _defaultMat (Instance) (Instance) (Instance) (Instance)
usemap _defaultMat (Instance) (Instance) (Instance) (Instance)
f 139/235/1 138/234/1 137/233/1
f 138/234/1 139/235/1 140/236/1
f 139/171/21 141/170/21 140/169/21
f 141/170/21 139/171/21 142/172/21
f 141/12/22 138/273/22 140/10/22
f 138/273/22 141/12/22 143/274/22
f 144/276/23 139/7/23 137/275/23
f 139/7/23 144/276/23 142/8/23
f 144/175/24 138/174/24 143/173/24
f 138/174/24 144/175/24 137/176/24
f 141/243/6 144/242/6 143/241/6
f 144/242/6 141/243/6 142/244/6
v 0.6 0.0999999 -2.7
v 0.6 2.9 -2.7
v 0.5 0.0999999 -2.7
v 0.5 2.9 -2.7
v 0.5 2.9 -2.6
v 0.5 0.0999999 -2.6
v 0.6 2.9 -2.6
v 0.6 0.0999999 -2.6
vt -0.5 -2.6
vt -0.6 -2.6
vt -0.6 2.700001
vt -0.5 2.700001
vt -0.6 2.6
vt -0.5 2.6

usemtl _defaultMat (Instance) (Instance) (Instance) (Instance) (Instance)
usemap _defaultMat (Instance) (Instance) (Instance) (Instance) (Instance)
f 147/246/25 146/237/25 145/245/25
f 146/237/25 147/246/25 148/58/25
f 147/180/21 149/179/21 148/157/21
f 149/179/21 147/180/21 150/181/21
f 149/277/26 146/241/26 148/243/26
f 146/241/26 149/277/26 151/278/26
f 152/281/27 147/280/27 145/279/27
f 147/280/27 152/281/27 150/282/27
f 152/189/24 146/162/24 151/188/24
f 146/162/24 152/189/24 145/190/24
f 149/37/28 152/255/28 151/239/28
f 152/255/28 149/37/28 150/256/28
