# Made using Asset Forge (www.assetforge.io) version 1.3 

mtllib wall20x0.1x1.5.model.mtl 

v 10 0 0.55
v 10 0 0.45
v -10 0 0.55
v -10 0 0.45
v -10 1.5 0.45
v -10 1.5 0.55
v 10 1.5 0.45
v 10 1.5 0.55
vn 0 -1.5 0
vn -20 0 0
vn 0 0 -0.1
vn 0 0 0.1
vn 20 0 0
vn 0 1.5 0
vt -10 -0.55
vt -10 -0.45
vt 10 -0.55
vt 10 -0.45
vt 0.45 0
vt 0.45 1.5
vt 0.55 0
vt 0.55 1.5
vt 10 0
vt -10 0
vt 10 1.5
vt -10 1.5
vt -0.45 1.5
vt -0.45 0
vt -0.55 1.5
vt -0.55 0
vt -10 0.45
vt -10 0.55
vt 10 0.45
vt 10 0.55

usemtl customMaterial1 (Instance)
usemap customMaterial1 (Instance)
f 3/3/1 2/2/1 1/1/1
f 2/2/1 3/3/1 4/4/1
f 3/7/2 5/6/2 4/5/2
f 5/6/2 3/7/2 6/8/2
f 5/11/3 2/10/3 4/9/3
f 2/10/3 5/11/3 7/12/3
f 8/11/4 3/10/4 1/9/4
f 3/10/4 8/11/4 6/12/4
f 8/15/5 2/14/5 7/13/5
f 2/14/5 8/15/5 1/16/5
f 5/19/6 8/18/6 7/17/6
f 8/18/6 5/19/6 6/20/6
