# Blender v2.79 (sub 0) OBJ File: 'floortiled20x20blender.blend'
# www.blender.org
mtllib floortiled20x20blender.mtl
o floortiled20x20.model
v -10.000000 -0.000002 10.000000
v 10.000000 0.000002 -10.000000
v 10.000000 -0.000002 10.000000
v -10.000000 0.000002 -10.000000
v -10.000000 0.100002 -10.000000
v -10.000000 0.099998 10.000000
v 10.000000 0.100002 -10.000000
v 10.000000 0.099998 10.000000
vt 10.000000 -10.000000
vt -10.000000 10.000000
vt -10.000000 -10.000000
vt 10.000000 10.000000
vt 10.000000 0.000000
vt -10.000000 0.100000
vt -10.000000 0.000000
vt 10.000000 0.100000
vt 10.000000 0.100000
vt -10.000000 0.000000
vt 10.000000 0.000000
vt -10.000000 0.100000
vt 10.000000 0.100000
vt -10.000000 0.000000
vt 10.000000 0.000000
vt -10.000000 0.100000
vt -10.000000 0.100000
vt 10.000000 0.000000
vt 10.000000 0.100000
vt -10.000000 0.000000
vt 10.000000 -10.000000
vt -10.000000 10.000000
vt -10.000000 -10.000000
vt 10.000000 10.000000
vn 0.0000 -1.0000 -0.0000
vn -1.0000 0.0000 0.0000
vn 0.0000 0.0000 -1.0000
vn 0.0000 0.0000 1.0000
vn 1.0000 0.0000 0.0000
vn 0.0000 1.0000 0.0000
usemtl Material.001
s 1
f 1/1/1 2/2/1 3/3/1
f 2/2/1 1/1/1 4/4/1
f 1/5/2 5/6/2 4/7/2
f 5/6/2 1/5/2 6/8/2
f 5/9/3 2/10/3 4/11/3
f 2/10/3 5/9/3 7/12/3
f 8/13/4 1/14/4 3/15/4
f 1/14/4 8/13/4 6/16/4
f 8/17/5 2/18/5 7/19/5
f 2/18/5 8/17/5 3/20/5
f 5/21/6 8/22/6 7/23/6
f 8/22/6 5/21/6 6/24/6
