# Made using Asset Forge (www.assetforge.io) version 1.3 

mtllib ceilingVent.model.mtl 

v 0.271 0.65 0.4070001
v 0.271 0.33 0.4070001
v -0.171 0.65 0.4070001
v -0.171 0.33 0.4070001
v 0.271 0.65 -0.307
v 0.271 0.33 -0.307
v 0.1332343 0.4635021 -0.307
v -0.1710001 0.33 -0.3070001
v -0.1397657 0.4635021 -0.3070001
v -0.1397657 0.6035021 -0.3070001
v 0.1332343 0.6035021 -0.307
v -0.1710001 0.65 -0.3070001
v 0.2131702 0.33 -0.2135828
v 0.2131702 0.33 0.3135828
v -0.1131703 0.33 0.3135828
v -0.1131703 0.33 -0.2135828
v -0.1710001 0.6055155 -0.2135828
v -0.1710001 0.3744843 -0.2135828
v -0.171 0.3744843 0.3135828
v -0.171 0.6055155 0.3135828
v -0.1131703 0.3499999 0.3135828
v -0.1131703 0.3499999 -0.2135828
v -0.1293536 0.65 -0.2397249
v -0.1293535 0.65 0.3397249
v 0.2293535 0.65 0.339725
v 0.2293534 0.65 -0.2397249
v 0.2131702 0.3499999 -0.2135828
v 0.2131702 0.3499999 0.3135828
v -0.1450001 0.6055155 -0.2135828
v -0.1450001 0.6055155 0.3135827
v -0.1450001 0.3744843 0.3135827
v -0.1450001 0.3744843 -0.2135828
v 0.1332343 0.7 -0.5800001
v 0.1332343 0.6035021 -0.5800001
v -0.1397657 0.7 -0.5800001
v -0.1397657 0.6035021 -0.5800001
v 0.1332342 0.7 -0.8740002
v 0.1332342 0.6035021 -0.8740002
v 0.1332342 0.5852284 -0.871485
v 0.1332342 0.5672674 -0.8639824
v 0.1332342 0.5499265 -0.8516207
v 0.1332342 0.5335021 -0.8346117
v 0.1332342 0.5182755 -0.8132461
v 0.1332342 0.5045071 -0.7878895
v 0.1332342 0.4924327 -0.758976
v 0.1332342 0.4822585 -0.7270001
v 0.1332343 0.474159 -0.692509
v 0.1332343 0.4682725 -0.6560929
v 0.1332343 0.4646998 -0.6183748
v 0.1332343 0.4635021 -0.5800001
v -0.1397658 0.5672674 -0.8639824
v -0.1397658 0.5852284 -0.871485
v -0.1397658 0.5045071 -0.7878896
v -0.1397658 0.5182755 -0.8132461
v -0.1397658 0.4924327 -0.7589761
v -0.1397658 0.4822585 -0.7270001
v -0.1397657 0.474159 -0.6925091
v -0.1397657 0.4682725 -0.6560929
v -0.1397658 0.5335021 -0.8346117
v -0.1397658 0.5499265 -0.8516208
v -0.1397658 0.7 -0.8740002
v -0.1397658 0.6035021 -0.8740002
v -0.1397657 0.4646998 -0.6183748
v -0.1397657 0.4635021 -0.5800001
v 0.2293534 0.7 -0.2397249
v -0.1293536 0.7 -0.2397249
v -0.1293535 0.7 0.3397249
v 0.2293535 0.7 0.339725
vn 2.384186E-07 0 2.1
vn 1.3 0 1.192093E-07
vn -2.384186E-07 0 -2.1
vn 0 -1 0
vn -1.3 0 -1.192093E-07
vn 0 1 0
vn -2.384186E-07 -0.2798565 -2.016088
vn -2.384186E-07 -0.1521499 -2.075551
vn -2.384186E-07 -0.237659 -2.039833
vn -2.384186E-07 -0.1088383 -2.087525
vn -1.192093E-07 -0.7071072 -1.484924
vn -2.384186E-07 -0.6259455 -1.637721
vn -2.384186E-07 -0.5912875 -1.693568
vn -1.192093E-07 -0.7798674 -1.314485
vn -1.192093E-07 -0.8064611 -1.241704
vn -1.192093E-07 -0.8548977 -1.089474
vn -1.192093E-07 -0.8767405 -1.010025
vn -1.192093E-07 -0.9153007 -0.8458204
vn -1.192093E-07 -0.9320182 -0.7610654
vn -5.960464E-08 -0.9600422 -0.5876977
vn -5.960464E-08 -0.9713488 -0.4990849
vn -2.384186E-07 -0.5187967 -1.795286
vn -2.384186E-07 -0.4027719 -1.922131
vn -2.384186E-07 -0.4809638 -1.841156
vn -2.384186E-07 -0.3624128 -1.957237
vn -2.384186E-07 -0.04362208 -2.098001
vn -2.384186E-07 -0.02181104 -2.099501
vn -2.980232E-08 -0.9883575 -0.3195177
vn -2.980232E-08 -0.9940596 -0.2285633
vn -7.450581E-09 -0.9990483 -0.09160823
vn -3.72529E-09 -0.9997624 -0.04580412
vt 0.271 0.65
vt 0.271 0.3299999
vt -0.171 0.65
vt -0.171 0.3299999
vt -0.4070001 0.65
vt 0.307 0.65
vt -0.4070001 0.3299999
vt 0.307 0.3299999
vt -0.2709999 0.65
vt -0.1332343 0.4635021
vt -0.2709999 0.3299999
vt 0.1710001 0.3299999
vt 0.1397657 0.4635021
vt 0.1397657 0.6035021
vt -0.1332343 0.6035021
vt 0.1710001 0.65
vt 0.1710001 0.3070001
vt -0.2131702 0.2135827
vt -0.2709999 0.307
vt -0.271 -0.4070001
vt -0.2131702 -0.3135828
vt 0.1131703 -0.3135827
vt 0.1131703 0.2135828
vt 0.171 -0.4070001
vt 0.4070001 0.65
vt -0.2135828 0.6055155
vt -0.3070001 0.65
vt -0.3070001 0.3299999
vt -0.2135828 0.3744843
vt 0.3135827 0.3744843
vt 0.3135827 0.6055155
vt 0.4070001 0.3299999
vt -0.3135827 0.3499999
vt 0.2135828 0.3499999
vt -0.3135827 0.3299999
vt 0.2135828 0.3299999
vt -0.2709999 -0.307
vt 0.1293536 -0.2397249
vt 0.1710001 -0.3070001
vt 0.171 0.4070001
vt 0.1293535 0.3397249
vt -0.2293535 0.339725
vt -0.2293534 -0.2397249
vt -0.271 0.4070001
vt -0.2135827 0.3499999
vt 0.3135828 0.3499999
vt -0.2135827 0.3299999
vt 0.3135828 0.3299999
vt 0.1450001 0.2135828
vt 0.1710001 0.2135828
vt 0.145 -0.3135827
vt 0.171 -0.3135827
vt 0.145 0.3744843
vt 0.145 0.6055155
vt 0.171 0.3744843
vt 0.171 0.6055155
vt 0.2131702 0.3499999
vt 0.2131702 0.3299999
vt -0.1131703 0.3499999
vt -0.1131703 0.3299999
vt 0.1710001 -0.2135828
vt 0.1450001 -0.2135828
vt 0.171 0.3135827
vt 0.145 0.3135827
vt -0.1450001 0.6055155
vt -0.1450001 0.3744843
vt -0.1710001 0.6055155
vt -0.1710001 0.3744843
vt -0.2131702 0.3299999
vt -0.2131702 0.3499999
vt 0.1131703 0.3299999
vt 0.1131703 0.3499999
vt 0.1332343 0.7
vt 0.1332343 0.6035021
vt -0.1397657 0.7
vt -0.1397657 0.6035021
vt 0.5800001 0.7
vt 0.8740001 0.7
vt 0.5800001 0.6035021
vt 0.8740001 0.6035021
vt 0.8714849 0.5852284
vt 0.307 0.6035021
vt 0.307 0.4635021
vt 0.8639824 0.5672674
vt 0.8516207 0.5499265
vt 0.8346117 0.5335021
vt 0.8132461 0.5182755
vt 0.7878895 0.5045071
vt 0.758976 0.4924327
vt 0.7270001 0.4822585
vt 0.6925091 0.474159
vt 0.6560929 0.4682725
vt 0.6183748 0.4646998
vt 0.5800001 0.4635021
vt 0.1332343 0.6035021
vt 0.1332342 0.6035021
vt -0.1332342 0.5672674
vt -0.1332342 0.5852284
vt 0.1397658 0.5672674
vt 0.1397658 0.5852284
vt -0.1332342 0.7878895
vt -0.1332342 0.8132461
vt 0.1397658 0.7878895
vt 0.1397658 0.8132461
vt -0.1332342 0.758976
vt 0.1397658 0.758976
vt -0.1332342 0.7270001
vt 0.1397658 0.7270001
vt -0.1332342 0.6925091
vt 0.1397658 0.6925091
vt -0.1332342 0.6560929
vt 0.1397658 0.6560929
vt -0.1332342 0.8346117
vt -0.1332342 0.8516207
vt 0.1397658 0.8346117
vt 0.1397658 0.8516207
vt 0.1397658 -0.8740001
vt -0.1332342 -0.8740001
vt 0.1397657 -0.5800002
vt -0.1332343 -0.5800001
vt -0.1332342 0.5499265
vt 0.1397658 0.5499265
vt -0.1332342 0.6035021
vt 0.1397658 0.6035021
vt -0.1332343 0.6183748
vt 0.1397658 0.6183748
vt -0.1332343 0.5800001
vt 0.1397657 0.5800002
vt -0.1332342 0.7
vt 0.1397658 0.7
vt -0.1332343 0.307
vt 0.1397657 0.3070001
vt 0.1397657 -0.3070001
vt -0.1332343 -0.307
vt -0.5800002 0.7
vt -0.5800002 0.6035021
vt -0.8740001 0.7
vt -0.8740001 0.6035021
vt -0.8714849 0.5852284
vt -0.3070001 0.6035021
vt -0.3070001 0.4635021
vt -0.8639824 0.5672674
vt -0.8516207 0.5499265
vt -0.8346117 0.5335021
vt -0.8132461 0.5182755
vt -0.7878895 0.5045071
vt -0.758976 0.4924327
vt -0.7270001 0.4822585
vt -0.6925091 0.474159
vt -0.6560929 0.4682725
vt -0.6183748 0.4646998
vt -0.5800002 0.4635021
vt -0.2293534 0.65
vt -0.2293534 0.7
vt 0.1293536 0.65
vt 0.1293536 0.7
vt -0.2397249 0.7
vt 0.3397249 0.7
vt -0.2397249 0.65
vt 0.3397249 0.65
vt 0.2293535 0.7
vt 0.2293535 0.65
vt -0.1293535 0.7
vt -0.1293535 0.65
vt -0.339725 0.7
vt 0.2397249 0.7
vt -0.339725 0.65
vt 0.2397249 0.65

usemtl lightStone (Instance) (Instance)
usemap lightStone (Instance) (Instance)
f 3/3/1 2/2/1 1/1/1
f 2/2/1 3/3/1 4/4/1
f 2/7/2 5/6/2 1/5/2
f 5/6/2 2/7/2 6/8/2
f 6/11/3 7/10/3 5/9/3
f 7/10/3 6/11/3 8/12/3
f 7/10/3 8/12/3 9/13/3
f 9/13/3 8/12/3 10/14/3
f 11/15/3 5/9/3 7/10/3
f 5/9/3 11/15/3 12/16/3
f 12/16/3 11/15/3 10/14/3
f 12/16/3 10/14/3 8/12/3
f 6/19/4 13/18/4 8/17/4
f 13/18/4 6/19/4 2/20/4
f 13/18/4 2/20/4 14/21/4
f 14/21/4 2/20/4 15/22/4
f 16/23/4 8/17/4 13/18/4
f 8/17/4 16/23/4 4/24/4
f 4/24/4 16/23/4 15/22/4
f 4/24/4 15/22/4 2/20/4
f 12/27/5 17/26/5 3/25/5
f 17/26/5 12/27/5 8/28/5
f 17/26/5 8/28/5 18/29/5
f 18/29/5 8/28/5 19/30/5
f 20/31/5 3/25/5 17/26/5
f 3/25/5 20/31/5 4/32/5
f 4/32/5 20/31/5 19/30/5
f 4/32/5 19/30/5 8/28/5
f 15/35/2 22/34/2 21/33/2
f 22/34/2 15/35/2 16/36/2
f 12/39/6 23/38/6 5/37/6
f 23/38/6 12/39/6 3/40/6
f 23/38/6 3/40/6 24/41/6
f 24/41/6 3/40/6 25/42/6
f 26/43/6 5/37/6 23/38/6
f 5/37/6 26/43/6 1/44/6
f 1/44/6 26/43/6 25/42/6
f 1/44/6 25/42/6 3/40/6
f 13/47/5 28/46/5 27/45/5
f 28/46/5 13/47/5 14/48/5
f 30/51/4 17/50/4 29/49/4
f 17/50/4 30/51/4 20/52/4
f 19/55/3 30/54/3 31/53/3
f 30/54/3 19/55/3 20/56/3
f 22/59/1 13/58/1 27/57/1
f 13/58/1 22/59/1 16/60/1
f 19/63/6 32/62/6 18/61/6
f 32/62/6 19/63/6 31/64/6
f 17/67/1 32/66/1 29/65/1
f 32/66/1 17/67/1 18/68/1
f 15/71/3 28/70/3 14/69/3
f 28/70/3 15/71/3 21/72/3

usemtl stone (Instance)
usemap stone (Instance)
f 35/75/1 34/74/1 33/73/1
f 34/74/1 35/75/1 36/76/1
f 34/79/2 37/78/2 33/77/2
f 37/78/2 34/79/2 38/80/2
f 38/80/2 11/82/2 39/81/2
f 39/81/2 11/82/2 7/83/2
f 39/81/2 7/83/2 40/84/2
f 40/84/2 7/83/2 41/85/2
f 41/85/2 7/83/2 42/86/2
f 42/86/2 7/83/2 43/87/2
f 43/87/2 7/83/2 44/88/2
f 44/88/2 7/83/2 45/89/2
f 45/89/2 7/83/2 46/90/2
f 46/90/2 7/83/2 47/91/2
f 47/91/2 7/83/2 48/92/2
f 48/92/2 7/83/2 49/93/2
f 49/93/2 7/83/2 50/94/2
f 38/96/4 34/74/4 11/95/4
f 51/99/9 39/98/8 40/97/7
f 39/98/8 51/99/9 52/100/10
f 53/103/11 43/102/12 44/101/11
f 43/102/12 53/103/11 54/104/13
f 46/107/16 55/106/15 45/105/14
f 55/106/15 46/107/16 56/108/17
f 48/111/20 57/110/19 47/109/18
f 57/110/19 48/111/20 58/112/21
f 59/115/24 41/114/23 42/113/22
f 41/114/23 59/115/24 60/116/25
f 35/119/6 37/118/6 61/117/6
f 37/118/6 35/119/6 33/120/6
f 60/122/25 40/97/7 41/121/23
f 40/97/7 60/122/25 51/99/9
f 52/100/10 38/123/26 39/98/8
f 38/123/26 52/100/10 62/124/27
f 50/127/30 63/126/29 49/125/28
f 63/126/29 50/127/30 64/128/31
f 62/124/27 37/129/3 38/123/26
f 37/129/3 62/124/27 61/130/3
f 7/131/4 64/128/31 50/127/30
f 64/128/31 7/131/4 9/132/4
f 10/133/6 34/120/6 36/119/6
f 34/120/6 10/133/6 11/134/6
f 61/137/5 36/136/5 35/135/5
f 36/136/5 61/137/5 62/138/5
f 36/136/5 62/138/5 52/139/5
f 36/136/5 52/139/5 10/140/5
f 10/140/5 52/139/5 9/141/5
f 9/141/5 52/139/5 51/142/5
f 9/141/5 51/142/5 60/143/5
f 9/141/5 60/143/5 59/144/5
f 9/141/5 59/144/5 54/145/5
f 9/141/5 54/145/5 53/146/5
f 9/141/5 53/146/5 55/147/5
f 9/141/5 55/147/5 56/148/5
f 9/141/5 56/148/5 57/149/5
f 9/141/5 57/149/5 58/150/5
f 9/141/5 58/150/5 63/151/5
f 9/141/5 63/151/5 64/152/5
f 49/125/28 58/112/21 48/111/20
f 58/112/21 49/125/28 63/126/29
f 45/105/14 53/103/11 44/101/11
f 53/103/11 45/105/14 55/106/15
f 47/109/18 56/108/17 46/107/16
f 56/108/17 47/109/18 57/110/19
f 23/155/3 65/154/3 26/153/3
f 65/154/3 23/155/3 66/156/3
f 23/159/5 67/158/5 66/157/5
f 67/158/5 23/159/5 24/160/5
f 54/104/13 42/113/22 43/102/12
f 42/113/22 54/104/13 59/115/24
f 67/163/1 25/162/1 68/161/1
f 25/162/1 67/163/1 24/164/1
f 67/41/6 65/43/6 66/38/6
f 65/43/6 67/41/6 68/42/6
f 32/29/5 30/31/5 29/26/5
f 30/31/5 32/29/5 31/30/5
f 25/167/2 65/166/2 68/165/2
f 65/166/2 25/167/2 26/168/2
f 28/21/4 22/23/4 27/18/4
f 22/23/4 28/21/4 21/22/4
