# Made using Asset Forge (www.assetforge.io) version 1.3 

mtllib wallWithOpening.model.mtl 

v 10 0 0.5
v 10 0 -0.5
v -10 0 0.5
v -10 0 -0.5
v -10 1.5 -0.5
v -10 1.5 0.5
v 10 1.5 -0.5
v 10 1.5 0.5
vn 0 -1.5 0
vn -20 0 0
vn 0 0 -1
vn 0 0 1
vn 20 0 0
vn 0 1.5 0
vt -10 -0.5
vt -10 0.5
vt 10 -0.5
vt 10 0.5
vt -0.5 0
vt -0.5 1.5
vt 0.5 0
vt 0.5 1.5
vt 10 0
vt -10 0
vt 10 1.5
vt -10 1.5

usemtl _defaultMat (Instance)
usemap _defaultMat (Instance)
f 3/3/1 2/2/1 1/1/1
f 2/2/1 3/3/1 4/4/1
f 3/7/2 5/6/2 4/5/2
f 5/6/2 3/7/2 6/8/2
f 5/11/3 2/10/3 4/9/3
f 2/10/3 5/11/3 7/12/3
f 8/11/4 3/10/4 1/9/4
f 3/10/4 8/11/4 6/12/4
f 8/6/5 2/7/5 7/8/5
f 2/7/5 8/6/5 1/5/5
f 5/3/6 8/2/6 7/1/6
f 8/2/6 5/3/6 6/4/6
v 4.8 1.5 0.5
v 4.8 1.5 -0.5
v 4.8 3.7 -0.5
v 4.8 3.7 0.5
v 10 3.7 -0.5
v 10 3.7 0.5
vn 0 -2.2 0
vn -5.2 0 0
vn 5.2 0 0
vn 0 2.2 0
vt -4.8 -0.5
vt -4.8 0.5
vt -0.5 3.7
vt 0.5 3.7
vt -4.8 1.5
vt -4.8 3.7
vt -10 3.7
vt 4.8 1.5
vt 10 3.7
vt 4.8 3.7

usemtl _defaultMat (Instance) (Instance)
usemap _defaultMat (Instance) (Instance)
f 9/13/7 7/2/7 8/1/7
f 7/2/7 9/13/7 10/14/7
f 9/8/8 11/15/8 10/6/8
f 11/15/8 9/8/8 12/16/8
f 11/18/3 7/12/3 10/17/3
f 7/12/3 11/18/3 13/19/3
f 14/21/4 9/20/4 8/11/4
f 9/20/4 14/21/4 12/22/4
f 14/15/9 7/8/9 13/16/9
f 7/8/9 14/15/9 8/6/9
f 11/13/10 14/2/10 13/1/10
f 14/2/10 11/13/10 12/14/10
v -10 3.7 0.5
v -10 3.7 -0.5
v -10 5.2 -0.5
v -10 5.2 0.5
v 10 5.2 -0.5
v 10 5.2 0.5
vt -0.5 5.2
vt 0.5 5.2
vt 10 5.2
vt -10 5.2

usemtl _defaultMat (Instance) (Instance)
usemap _defaultMat (Instance) (Instance)
f 15/3/1 13/2/1 14/1/1
f 13/2/1 15/3/1 16/4/1
f 15/16/2 17/23/2 16/15/2
f 17/23/2 15/16/2 18/24/2
f 17/25/3 13/19/3 16/21/3
f 13/19/3 17/25/3 19/26/3
f 20/25/4 15/19/4 14/21/4
f 15/19/4 20/25/4 18/26/4
f 20/23/5 13/16/5 19/24/5
f 13/16/5 20/23/5 14/15/5
f 17/3/6 20/2/6 19/1/6
f 20/2/6 17/3/6 18/4/6
v -4.800001 1.5 0.5
v -4.800001 1.5 -0.5
v -4.800001 3.7 -0.5
v -4.800001 3.7 0.5
vt 4.800001 -0.5
vt 4.800001 0.5
vt 4.800001 1.5
vt 4.800001 3.7
vt -4.800001 1.5
vt -4.800001 3.7

usemtl _defaultMat (Instance) (Instance)
usemap _defaultMat (Instance) (Instance)
f 6/3/7 22/28/7 21/27/7
f 22/28/7 6/3/7 5/4/7
f 6/8/8 16/15/8 5/6/8
f 16/15/8 6/8/8 15/16/8
f 16/21/3 22/29/3 5/11/3
f 22/29/3 16/21/3 23/30/3
f 24/32/4 6/12/4 21/31/4
f 6/12/4 24/32/4 15/19/4
f 24/15/9 22/8/9 23/16/9
f 22/8/9 24/15/9 21/6/9
f 16/3/10 24/28/10 23/27/10
f 24/28/10 16/3/10 15/4/10
